<svg xmlns="http://www.w3.org/2000/svg" xmlns:xlink="http://www.w3.org/1999/xlink" width="1366" zoomAndPan="magnify" viewBox="0 0 1024.5 144.749998" height="768" preserveAspectRatio="xMidYMid meet" version="1.0"><defs><g/><clipPath id="96aa90938a"><path d="M 0.632812 0 L 1023.367188 0 L 1023.367188 144.5 L 0.632812 144.5 Z M 0.632812 0 " clip-rule="nonzero"/></clipPath><clipPath id="bba731adec"><path d="M 15.085938 88.027344 L 47.296875 88.027344 L 47.296875 120.234375 L 15.085938 120.234375 Z M 15.085938 88.027344 " clip-rule="nonzero"/></clipPath></defs><g clip-path="url(#96aa90938a)"><path fill="#ffffff" d="M 0.632812 0 L 1023.867188 0 L 1023.867188 151.3125 L 0.632812 151.3125 Z M 0.632812 0 " fill-opacity="1" fill-rule="nonzero"/><path fill="#ffffff" d="M 0.632812 0 L 1023.867188 0 L 1023.867188 144.570312 L 0.632812 144.570312 Z M 0.632812 0 " fill-opacity="1" fill-rule="nonzero"/><path fill="#9da8ac" d="M 0.632812 0 L 1023.867188 0 L 1023.867188 144.570312 L 0.632812 144.570312 Z M 0.632812 0 " fill-opacity="1" fill-rule="nonzero"/></g><g fill="#000000" fill-opacity="1"><g transform="translate(16.194922, 63.136299)"><g><path d="M 12.046875 -30.671875 L 19.5 -30.671875 L 31.328125 0 L 24.3125 0 L 21.6875 -7.015625 L 9.859375 -7.015625 L 7.234375 0 L 0.21875 0 Z M 19.5 -12.921875 L 15.859375 -23 L 15.6875 -23 L 12.046875 -12.921875 Z M 19.5 -12.921875 "/></g></g></g><g fill="#000000" fill-opacity="1"><g transform="translate(47.729025, 63.136299)"><g><path d="M 11.390625 -10.953125 L -0.21875 -30.671875 L 7.453125 -30.671875 L 14.59375 -17.53125 L 14.765625 -17.53125 L 21.90625 -30.671875 L 29.578125 -30.671875 L 17.96875 -10.953125 L 17.96875 0 L 11.390625 0 Z M 11.390625 -10.953125 "/></g></g></g><g fill="#000000" fill-opacity="1"><g transform="translate(77.073257, 63.136299)"><g><path d="M 12.046875 -30.671875 L 19.5 -30.671875 L 31.328125 0 L 24.3125 0 L 21.6875 -7.015625 L 9.859375 -7.015625 L 7.234375 0 L 0.21875 0 Z M 19.5 -12.921875 L 15.859375 -23 L 15.6875 -23 L 12.046875 -12.921875 Z M 19.5 -12.921875 "/></g></g></g><g fill="#000000" fill-opacity="1"><g transform="translate(108.60736, 63.136299)"><g><path d="M 3.9375 -30.671875 L 10.515625 -30.671875 L 10.515625 -18.625 L 23.65625 -18.625 L 23.65625 -30.671875 L 30.234375 -30.671875 L 30.234375 0 L 23.65625 0 L 23.65625 -12.484375 L 10.515625 -12.484375 L 10.515625 0 L 3.9375 0 Z M 3.9375 -30.671875 "/></g></g></g><g fill="#000000" fill-opacity="1"><g transform="translate(142.769309, 63.136299)"><g/></g></g><g fill="#000000" fill-opacity="1"><g transform="translate(151.96676, 63.136299)"><g><path d="M 3.9375 -30.671875 L 26.71875 -30.671875 L 26.71875 -24.53125 L 10.515625 -24.53125 L 10.515625 -18.625 L 23.21875 -18.625 L 23.21875 -12.703125 L 10.515625 -12.703125 L 10.515625 -6.140625 L 27.15625 -6.140625 L 27.15625 0 L 3.9375 0 Z M 3.9375 -30.671875 "/></g></g></g><g fill="#000000" fill-opacity="1"><g transform="translate(181.092005, 63.136299)"><g><path d="M 3.9375 -30.671875 L 10.515625 -30.671875 L 10.515625 -6.140625 L 24.75 -6.140625 L 24.75 0 L 3.9375 0 Z M 3.9375 -30.671875 "/></g></g></g><g fill="#000000" fill-opacity="1"><g transform="translate(206.713461, 63.136299)"><g><path d="M 12.703125 0.65625 C 10.710938 0.65625 8.976562 0.410156 7.5 -0.078125 C 6.03125 -0.578125 4.800781 -1.132812 3.8125 -1.75 C 2.644531 -2.445312 1.664062 -3.25 0.875 -4.15625 L 5.25 -8.546875 C 5.78125 -7.929688 6.410156 -7.375 7.140625 -6.875 C 7.753906 -6.46875 8.503906 -6.09375 9.390625 -5.75 C 10.285156 -5.414062 11.316406 -5.25 12.484375 -5.25 C 14.234375 -5.25 15.507812 -5.582031 16.3125 -6.25 C 17.125 -6.925781 17.53125 -7.765625 17.53125 -8.765625 C 17.53125 -9.640625 17.148438 -10.332031 16.390625 -10.84375 C 15.628906 -11.351562 14.675781 -11.8125 13.53125 -12.21875 C 12.394531 -12.632812 11.171875 -13.0625 9.859375 -13.5 C 8.546875 -13.9375 7.316406 -14.507812 6.171875 -15.21875 C 5.035156 -15.9375 4.085938 -16.859375 3.328125 -17.984375 C 2.566406 -19.109375 2.1875 -20.5625 2.1875 -22.34375 C 2.1875 -23.539062 2.441406 -24.6875 2.953125 -25.78125 C 3.460938 -26.875 4.191406 -27.828125 5.140625 -28.640625 C 6.097656 -29.460938 7.269531 -30.113281 8.65625 -30.59375 C 10.039062 -31.082031 11.609375 -31.328125 13.359375 -31.328125 C 15.054688 -31.328125 16.550781 -31.109375 17.84375 -30.671875 C 19.144531 -30.234375 20.222656 -29.75 21.078125 -29.21875 C 22.066406 -28.601562 22.925781 -27.914062 23.65625 -27.15625 L 19.28125 -22.78125 C 18.8125 -23.28125 18.300781 -23.71875 17.75 -24.09375 C 17.25 -24.414062 16.644531 -24.710938 15.9375 -24.984375 C 15.238281 -25.265625 14.453125 -25.40625 13.578125 -25.40625 C 11.910156 -25.40625 10.726562 -25.113281 10.03125 -24.53125 C 9.332031 -23.945312 8.984375 -23.21875 8.984375 -22.34375 C 8.984375 -21.46875 9.363281 -20.773438 10.125 -20.265625 C 10.882812 -19.753906 11.832031 -19.289062 12.96875 -18.875 C 14.101562 -18.46875 15.328125 -18.046875 16.640625 -17.609375 C 17.960938 -17.171875 19.191406 -16.59375 20.328125 -15.875 C 21.460938 -15.164062 22.410156 -14.25 23.171875 -13.125 C 23.929688 -12 24.3125 -10.546875 24.3125 -8.765625 C 24.3125 -7.503906 24.046875 -6.304688 23.515625 -5.171875 C 22.992188 -4.035156 22.226562 -3.035156 21.21875 -2.171875 C 20.21875 -1.304688 19 -0.617188 17.5625 -0.109375 C 16.132812 0.398438 14.515625 0.65625 12.703125 0.65625 Z M 12.703125 0.65625 "/></g></g></g><g fill="#000000" fill-opacity="1"><g transform="translate(232.334917, 63.136299)"><g><path d="M 12.046875 -30.671875 L 19.5 -30.671875 L 31.328125 0 L 24.3125 0 L 21.6875 -7.015625 L 9.859375 -7.015625 L 7.234375 0 L 0.21875 0 Z M 19.5 -12.921875 L 15.859375 -23 L 15.6875 -23 L 12.046875 -12.921875 Z M 19.5 -12.921875 "/></g></g></g><g fill="#000000" fill-opacity="1"><g transform="translate(263.869032, 63.136299)"><g><path d="M 3.9375 -30.671875 L 10.515625 -30.671875 L 10.515625 0 L 3.9375 0 Z M 3.9375 -30.671875 "/></g></g></g><g fill="#000000" fill-opacity="1"><g transform="translate(278.322162, 63.136299)"><g><path d="M 12.703125 0.65625 C 10.710938 0.65625 8.976562 0.410156 7.5 -0.078125 C 6.03125 -0.578125 4.800781 -1.132812 3.8125 -1.75 C 2.644531 -2.445312 1.664062 -3.25 0.875 -4.15625 L 5.25 -8.546875 C 5.78125 -7.929688 6.410156 -7.375 7.140625 -6.875 C 7.753906 -6.46875 8.503906 -6.09375 9.390625 -5.75 C 10.285156 -5.414062 11.316406 -5.25 12.484375 -5.25 C 14.234375 -5.25 15.507812 -5.582031 16.3125 -6.25 C 17.125 -6.925781 17.53125 -7.765625 17.53125 -8.765625 C 17.53125 -9.640625 17.148438 -10.332031 16.390625 -10.84375 C 15.628906 -11.351562 14.675781 -11.8125 13.53125 -12.21875 C 12.394531 -12.632812 11.171875 -13.0625 9.859375 -13.5 C 8.546875 -13.9375 7.316406 -14.507812 6.171875 -15.21875 C 5.035156 -15.9375 4.085938 -16.859375 3.328125 -17.984375 C 2.566406 -19.109375 2.1875 -20.5625 2.1875 -22.34375 C 2.1875 -23.539062 2.441406 -24.6875 2.953125 -25.78125 C 3.460938 -26.875 4.191406 -27.828125 5.140625 -28.640625 C 6.097656 -29.460938 7.269531 -30.113281 8.65625 -30.59375 C 10.039062 -31.082031 11.609375 -31.328125 13.359375 -31.328125 C 15.054688 -31.328125 16.550781 -31.109375 17.84375 -30.671875 C 19.144531 -30.234375 20.222656 -29.75 21.078125 -29.21875 C 22.066406 -28.601562 22.925781 -27.914062 23.65625 -27.15625 L 19.28125 -22.78125 C 18.8125 -23.28125 18.300781 -23.71875 17.75 -24.09375 C 17.25 -24.414062 16.644531 -24.710938 15.9375 -24.984375 C 15.238281 -25.265625 14.453125 -25.40625 13.578125 -25.40625 C 11.910156 -25.40625 10.726562 -25.113281 10.03125 -24.53125 C 9.332031 -23.945312 8.984375 -23.21875 8.984375 -22.34375 C 8.984375 -21.46875 9.363281 -20.773438 10.125 -20.265625 C 10.882812 -19.753906 11.832031 -19.289062 12.96875 -18.875 C 14.101562 -18.46875 15.328125 -18.046875 16.640625 -17.609375 C 17.960938 -17.171875 19.191406 -16.59375 20.328125 -15.875 C 21.460938 -15.164062 22.410156 -14.25 23.171875 -13.125 C 23.929688 -12 24.3125 -10.546875 24.3125 -8.765625 C 24.3125 -7.503906 24.046875 -6.304688 23.515625 -5.171875 C 22.992188 -4.035156 22.226562 -3.035156 21.21875 -2.171875 C 20.21875 -1.304688 19 -0.617188 17.5625 -0.109375 C 16.132812 0.398438 14.515625 0.65625 12.703125 0.65625 Z M 12.703125 0.65625 "/></g></g></g><g clip-path="url(#bba731adec)"><path fill="#010101" d="M 31.183594 90.929688 C 35.480469 90.929688 35.988281 90.945312 37.691406 91.023438 C 39.257812 91.09375 40.109375 91.351562 40.683594 91.578125 C 41.429688 91.867188 41.96875 92.222656 42.53125 92.785156 C 43.097656 93.351562 43.441406 93.886719 43.738281 94.636719 C 43.957031 95.199219 44.21875 96.054688 44.296875 97.628906 C 44.375 99.328125 44.386719 99.835938 44.386719 104.132812 C 44.386719 108.433594 44.375 108.941406 44.296875 110.640625 C 44.226562 112.207031 43.964844 113.0625 43.738281 113.632812 C 43.449219 114.382812 43.097656 114.917969 42.53125 115.484375 C 41.96875 116.046875 41.429688 116.394531 40.683594 116.691406 C 40.117188 116.910156 39.265625 117.167969 37.691406 117.246094 C 35.988281 117.324219 35.480469 117.339844 31.183594 117.339844 C 26.886719 117.339844 26.378906 117.324219 24.675781 117.246094 C 23.109375 117.175781 22.253906 116.914062 21.683594 116.691406 C 20.9375 116.398438 20.398438 116.046875 19.835938 115.484375 C 19.269531 114.917969 18.925781 114.382812 18.628906 113.632812 C 18.410156 113.070312 18.148438 112.214844 18.070312 110.640625 C 17.992188 108.941406 17.980469 108.433594 17.980469 104.132812 C 17.980469 99.835938 17.992188 99.328125 18.070312 97.628906 C 18.140625 96.0625 18.402344 95.207031 18.628906 94.636719 C 18.917969 93.886719 19.269531 93.351562 19.835938 92.785156 C 20.398438 92.222656 20.9375 91.875 21.683594 91.578125 C 22.25 91.359375 23.101562 91.097656 24.675781 91.023438 C 26.378906 90.945312 26.886719 90.929688 31.183594 90.929688 M 31.183594 88.03125 C 26.808594 88.03125 26.265625 88.050781 24.542969 88.128906 C 22.828125 88.207031 21.65625 88.480469 20.632812 88.875 C 19.574219 89.285156 18.675781 89.835938 17.78125 90.730469 C 16.890625 91.628906 16.339844 92.523438 15.933594 93.582031 C 15.535156 94.605469 15.261719 95.777344 15.183594 97.492188 C 15.105469 99.207031 15.085938 99.757812 15.085938 104.128906 C 15.085938 108.503906 15.105469 109.046875 15.183594 110.769531 C 15.261719 112.484375 15.535156 113.65625 15.933594 114.679688 C 16.339844 115.738281 16.890625 116.632812 17.789062 117.53125 C 18.683594 118.425781 19.582031 118.976562 20.640625 119.386719 C 21.664062 119.78125 22.835938 120.054688 24.550781 120.132812 C 26.265625 120.210938 26.816406 120.230469 31.191406 120.230469 C 35.566406 120.230469 36.109375 120.210938 37.832031 120.132812 C 39.546875 120.054688 40.71875 119.78125 41.742188 119.386719 C 42.800781 118.976562 43.695312 118.425781 44.59375 117.53125 C 45.488281 116.632812 46.039062 115.738281 46.449219 114.679688 C 46.84375 113.65625 47.117188 112.484375 47.195312 110.769531 C 47.273438 109.054688 47.296875 108.503906 47.296875 104.128906 C 47.296875 99.75 47.273438 99.207031 47.195312 97.484375 C 47.117188 95.769531 46.84375 94.601562 46.449219 93.578125 C 46.039062 92.519531 45.488281 91.621094 44.59375 90.726562 C 43.695312 89.828125 42.800781 89.277344 41.742188 88.867188 C 40.71875 88.472656 39.546875 88.199219 37.832031 88.121094 C 36.109375 88.050781 35.558594 88.03125 31.183594 88.03125 " fill-opacity="1" fill-rule="nonzero"/></g><path fill="#010101" d="M 31.183594 95.863281 C 26.617188 95.863281 22.917969 99.5625 22.917969 104.128906 C 22.917969 108.695312 26.625 112.398438 31.191406 112.398438 C 35.757812 112.398438 39.460938 108.699219 39.460938 104.128906 C 39.453125 99.5625 35.75 95.863281 31.183594 95.863281 M 31.183594 109.496094 C 28.21875 109.496094 25.820312 107.097656 25.820312 104.132812 C 25.820312 101.171875 28.21875 98.769531 31.183594 98.769531 C 34.148438 98.769531 36.546875 101.171875 36.546875 104.132812 C 36.554688 107.089844 34.148438 109.496094 31.183594 109.496094 " fill-opacity="1" fill-rule="nonzero"/><path fill="#010101" d="M 41.714844 95.539062 C 41.714844 96.605469 40.84375 97.472656 39.777344 97.472656 C 38.714844 97.472656 37.84375 96.605469 37.84375 95.539062 C 37.84375 94.472656 38.714844 93.605469 39.777344 93.605469 C 40.84375 93.605469 41.714844 94.464844 41.714844 95.539062 " fill-opacity="1" fill-rule="nonzero"/><g fill="#000000" fill-opacity="1"><g transform="translate(55.546641, 110.076148)"><g><path d="M 9.46875 3.125 C 8.332031 3.125 7.257812 2.894531 6.25 2.4375 C 5.238281 1.988281 4.347656 1.375 3.578125 0.59375 C 2.816406 -0.175781 2.207031 -1.070312 1.75 -2.09375 C 1.300781 -3.125 1.078125 -4.21875 1.078125 -5.375 C 1.078125 -6.539062 1.300781 -7.632812 1.75 -8.65625 C 2.207031 -9.6875 2.816406 -10.585938 3.578125 -11.359375 C 4.347656 -12.128906 5.238281 -12.738281 6.25 -13.1875 C 7.257812 -13.644531 8.332031 -13.875 9.46875 -13.875 C 10.675781 -13.875 11.796875 -13.660156 12.828125 -13.234375 C 13.867188 -12.804688 14.769531 -12.222656 15.53125 -11.484375 C 16.289062 -10.753906 16.882812 -9.898438 17.3125 -8.921875 C 17.75 -7.953125 17.96875 -6.914062 17.96875 -5.8125 C 17.96875 -5.082031 17.867188 -4.4375 17.671875 -3.875 C 17.484375 -3.3125 17.222656 -2.835938 16.890625 -2.453125 C 16.554688 -2.078125 16.15625 -1.789062 15.6875 -1.59375 C 15.226562 -1.394531 14.734375 -1.296875 14.203125 -1.296875 C 13.710938 -1.296875 13.300781 -1.363281 12.96875 -1.5 C 12.644531 -1.644531 12.378906 -1.804688 12.171875 -1.984375 C 11.929688 -2.179688 11.75 -2.414062 11.625 -2.6875 L 11.515625 -2.6875 C 11.367188 -2.414062 11.179688 -2.179688 10.953125 -1.984375 C 10.753906 -1.804688 10.5 -1.644531 10.1875 -1.5 C 9.875 -1.363281 9.488281 -1.296875 9.03125 -1.296875 C 8.550781 -1.296875 8.09375 -1.390625 7.65625 -1.578125 C 7.226562 -1.773438 6.851562 -2.046875 6.53125 -2.390625 C 6.207031 -2.742188 5.953125 -3.164062 5.765625 -3.65625 C 5.578125 -4.144531 5.484375 -4.679688 5.484375 -5.265625 C 5.484375 -5.859375 5.578125 -6.394531 5.765625 -6.875 C 5.953125 -7.363281 6.207031 -7.785156 6.53125 -8.140625 C 6.851562 -8.492188 7.226562 -8.765625 7.65625 -8.953125 C 8.09375 -9.148438 8.550781 -9.25 9.03125 -9.25 C 9.363281 -9.25 9.644531 -9.207031 9.875 -9.125 C 10.113281 -9.039062 10.316406 -8.941406 10.484375 -8.828125 C 10.660156 -8.691406 10.820312 -8.546875 10.96875 -8.390625 L 11.078125 -8.390625 L 11.078125 -9.140625 L 13.125 -9.140625 L 13.125 -4.515625 C 13.125 -4.140625 13.238281 -3.832031 13.46875 -3.59375 C 13.695312 -3.351562 13.976562 -3.234375 14.3125 -3.234375 C 14.519531 -3.234375 14.71875 -3.273438 14.90625 -3.359375 C 15.09375 -3.441406 15.25 -3.582031 15.375 -3.78125 C 15.507812 -3.988281 15.613281 -4.253906 15.6875 -4.578125 C 15.769531 -4.910156 15.8125 -5.320312 15.8125 -5.8125 C 15.8125 -6.644531 15.65625 -7.425781 15.34375 -8.15625 C 15.03125 -8.882812 14.585938 -9.519531 14.015625 -10.0625 C 13.453125 -10.613281 12.78125 -11.046875 12 -11.359375 C 11.226562 -11.671875 10.382812 -11.828125 9.46875 -11.828125 C 8.601562 -11.828125 7.789062 -11.660156 7.03125 -11.328125 C 6.269531 -11.003906 5.609375 -10.550781 5.046875 -9.96875 C 4.492188 -9.382812 4.050781 -8.703125 3.71875 -7.921875 C 3.394531 -7.140625 3.234375 -6.289062 3.234375 -5.375 C 3.234375 -4.457031 3.394531 -3.609375 3.71875 -2.828125 C 4.050781 -2.046875 4.492188 -1.363281 5.046875 -0.78125 C 5.609375 -0.195312 6.269531 0.253906 7.03125 0.578125 C 7.789062 0.910156 8.601562 1.078125 9.46875 1.078125 C 10.082031 1.078125 10.628906 1.007812 11.109375 0.875 C 11.585938 0.738281 11.992188 0.59375 12.328125 0.4375 C 12.710938 0.25 13.050781 0.03125 13.34375 -0.21875 L 14.515625 1.296875 C 14.148438 1.648438 13.710938 1.957031 13.203125 2.21875 C 12.773438 2.445312 12.25 2.65625 11.625 2.84375 C 11 3.03125 10.28125 3.125 9.46875 3.125 Z M 9.359375 -3.328125 C 9.847656 -3.328125 10.253906 -3.5 10.578125 -3.84375 C 10.910156 -4.195312 11.078125 -4.671875 11.078125 -5.265625 C 11.078125 -5.867188 10.90625 -6.34375 10.5625 -6.6875 C 10.226562 -7.03125 9.828125 -7.203125 9.359375 -7.203125 C 8.867188 -7.203125 8.457031 -7.03125 8.125 -6.6875 C 7.800781 -6.34375 7.640625 -5.867188 7.640625 -5.265625 C 7.640625 -4.671875 7.800781 -4.195312 8.125 -3.84375 C 8.457031 -3.5 8.867188 -3.328125 9.359375 -3.328125 Z M 9.359375 -3.328125 "/></g></g></g><g fill="#000000" fill-opacity="1"><g transform="translate(74.481855, 110.076148)"><g><path d="M 1.9375 -15.0625 L 8.28125 -15.0625 C 9.082031 -15.0625 9.8125 -14.9375 10.46875 -14.6875 C 11.132812 -14.4375 11.703125 -14.082031 12.171875 -13.625 C 12.648438 -13.175781 13.015625 -12.644531 13.265625 -12.03125 C 13.523438 -11.414062 13.65625 -10.738281 13.65625 -10 C 13.65625 -9.269531 13.523438 -8.597656 13.265625 -7.984375 C 13.015625 -7.367188 12.648438 -6.832031 12.171875 -6.375 C 11.703125 -5.925781 11.132812 -5.578125 10.46875 -5.328125 C 9.8125 -5.078125 9.082031 -4.953125 8.28125 -4.953125 L 5.15625 -4.953125 L 5.15625 0 L 1.9375 0 Z M 8.171875 -7.953125 C 8.816406 -7.953125 9.335938 -8.140625 9.734375 -8.515625 C 10.128906 -8.898438 10.328125 -9.394531 10.328125 -10 C 10.328125 -10.601562 10.128906 -11.09375 9.734375 -11.46875 C 9.335938 -11.851562 8.816406 -12.046875 8.171875 -12.046875 L 5.15625 -12.046875 L 5.15625 -7.953125 Z M 8.171875 -7.953125 "/></g></g></g><g fill="#000000" fill-opacity="1"><g transform="translate(89.113613, 110.076148)"><g><path d="M 1.9375 -15.0625 L 5.15625 -15.0625 L 5.15625 0 L 1.9375 0 Z M 1.9375 -15.0625 "/></g></g></g><g fill="#000000" fill-opacity="1"><g transform="translate(96.214318, 110.076148)"><g><path d="M 1.9375 -15.0625 L 4.84375 -15.0625 L 12.15625 -5.703125 L 12.15625 -15.0625 L 15.390625 -15.0625 L 15.390625 0 L 12.484375 0 L 5.15625 -9.359375 L 5.15625 0 L 1.9375 0 Z M 1.9375 -15.0625 "/></g></g></g><g fill="#000000" fill-opacity="1"><g transform="translate(113.535734, 110.076148)"><g><path d="M 9.140625 0.328125 C 7.984375 0.328125 6.90625 0.117188 5.90625 -0.296875 C 4.90625 -0.710938 4.039062 -1.273438 3.3125 -1.984375 C 2.582031 -2.703125 2.007812 -3.535156 1.59375 -4.484375 C 1.175781 -5.441406 0.96875 -6.457031 0.96875 -7.53125 C 0.96875 -8.601562 1.175781 -9.613281 1.59375 -10.5625 C 2.007812 -11.519531 2.582031 -12.351562 3.3125 -13.0625 C 4.039062 -13.78125 4.90625 -14.347656 5.90625 -14.765625 C 6.90625 -15.179688 7.984375 -15.390625 9.140625 -15.390625 C 10.191406 -15.390625 11.113281 -15.226562 11.90625 -14.90625 C 12.707031 -14.59375 13.375 -14.25 13.90625 -13.875 C 14.519531 -13.425781 15.046875 -12.925781 15.484375 -12.375 L 13.34375 -10.21875 C 13.019531 -10.625 12.65625 -10.984375 12.25 -11.296875 C 11.882812 -11.566406 11.441406 -11.8125 10.921875 -12.03125 C 10.410156 -12.257812 9.816406 -12.375 9.140625 -12.375 C 8.472656 -12.375 7.84375 -12.25 7.25 -12 C 6.664062 -11.75 6.15625 -11.40625 5.71875 -10.96875 C 5.28125 -10.53125 4.929688 -10.015625 4.671875 -9.421875 C 4.421875 -8.835938 4.296875 -8.207031 4.296875 -7.53125 C 4.296875 -6.851562 4.421875 -6.21875 4.671875 -5.625 C 4.929688 -5.039062 5.28125 -4.53125 5.71875 -4.09375 C 6.15625 -3.65625 6.664062 -3.3125 7.25 -3.0625 C 7.84375 -2.8125 8.472656 -2.6875 9.140625 -2.6875 C 9.847656 -2.6875 10.46875 -2.796875 11 -3.015625 C 11.53125 -3.242188 11.976562 -3.492188 12.34375 -3.765625 C 12.78125 -4.078125 13.148438 -4.4375 13.453125 -4.84375 L 15.59375 -2.6875 C 15.15625 -2.125 14.617188 -1.625 13.984375 -1.1875 C 13.441406 -0.8125 12.765625 -0.460938 11.953125 -0.140625 C 11.148438 0.171875 10.210938 0.328125 9.140625 0.328125 Z M 9.140625 0.328125 "/></g></g></g><g fill="#000000" fill-opacity="1"><g transform="translate(129.566112, 110.076148)"><g><path d="M 1.9375 -15.0625 L 5.15625 -15.0625 L 5.15625 -9.140625 L 11.625 -9.140625 L 11.625 -15.0625 L 14.84375 -15.0625 L 14.84375 0 L 11.625 0 L 11.625 -6.125 L 5.15625 -6.125 L 5.15625 0 L 1.9375 0 Z M 1.9375 -15.0625 "/></g></g></g><g fill="#000000" fill-opacity="1"><g transform="translate(146.349598, 110.076148)"><g><path d="M 1.9375 -15.0625 L 4.84375 -15.0625 L 10 -8.609375 L 15.171875 -15.0625 L 18.078125 -15.0625 L 18.078125 0 L 14.84375 0 L 14.84375 -9.890625 L 10 -3.875 L 5.15625 -9.890625 L 5.15625 0 L 1.9375 0 Z M 1.9375 -15.0625 "/></g></g></g><g fill="#000000" fill-opacity="1"><g transform="translate(166.360684, 110.076148)"><g><path d="M 1.9375 -15.0625 L 13.125 -15.0625 L 13.125 -12.046875 L 5.15625 -12.046875 L 5.15625 -9.140625 L 11.40625 -9.140625 L 11.40625 -6.234375 L 5.15625 -6.234375 L 5.15625 -3.015625 L 13.34375 -3.015625 L 13.34375 0 L 1.9375 0 Z M 1.9375 -15.0625 "/></g></g></g><g fill="#000000" fill-opacity="1"><g transform="translate(180.669684, 110.076148)"><g><path d="M 6.234375 0.328125 C 5.265625 0.328125 4.414062 0.207031 3.6875 -0.03125 C 2.96875 -0.28125 2.363281 -0.554688 1.875 -0.859375 C 1.300781 -1.203125 0.820312 -1.597656 0.4375 -2.046875 L 2.578125 -4.203125 C 2.835938 -3.898438 3.144531 -3.625 3.5 -3.375 C 3.800781 -3.175781 4.171875 -2.992188 4.609375 -2.828125 C 5.046875 -2.660156 5.550781 -2.578125 6.125 -2.578125 C 6.988281 -2.578125 7.617188 -2.742188 8.015625 -3.078125 C 8.410156 -3.410156 8.609375 -3.816406 8.609375 -4.296875 C 8.609375 -4.734375 8.421875 -5.078125 8.046875 -5.328125 C 7.671875 -5.578125 7.203125 -5.800781 6.640625 -6 C 6.085938 -6.195312 5.488281 -6.40625 4.84375 -6.625 C 4.195312 -6.84375 3.59375 -7.125 3.03125 -7.46875 C 2.46875 -7.820312 2 -8.273438 1.625 -8.828125 C 1.257812 -9.378906 1.078125 -10.09375 1.078125 -10.96875 C 1.078125 -11.5625 1.203125 -12.125 1.453125 -12.65625 C 1.703125 -13.195312 2.0625 -13.664062 2.53125 -14.0625 C 3 -14.46875 3.570312 -14.789062 4.25 -15.03125 C 4.925781 -15.269531 5.695312 -15.390625 6.5625 -15.390625 C 7.394531 -15.390625 8.128906 -15.28125 8.765625 -15.0625 C 9.398438 -14.84375 9.925781 -14.601562 10.34375 -14.34375 C 10.832031 -14.050781 11.257812 -13.71875 11.625 -13.34375 L 9.46875 -11.1875 C 9.238281 -11.425781 8.988281 -11.640625 8.71875 -11.828125 C 8.46875 -11.984375 8.171875 -12.128906 7.828125 -12.265625 C 7.484375 -12.410156 7.097656 -12.484375 6.671875 -12.484375 C 5.847656 -12.484375 5.265625 -12.335938 4.921875 -12.046875 C 4.578125 -11.765625 4.40625 -11.40625 4.40625 -10.96875 C 4.40625 -10.539062 4.59375 -10.203125 4.96875 -9.953125 C 5.34375 -9.703125 5.804688 -9.472656 6.359375 -9.265625 C 6.921875 -9.066406 7.523438 -8.859375 8.171875 -8.640625 C 8.816406 -8.429688 9.421875 -8.148438 9.984375 -7.796875 C 10.546875 -7.441406 11.007812 -6.988281 11.375 -6.4375 C 11.75 -5.882812 11.9375 -5.171875 11.9375 -4.296875 C 11.9375 -3.679688 11.804688 -3.09375 11.546875 -2.53125 C 11.296875 -1.976562 10.921875 -1.488281 10.421875 -1.0625 C 9.929688 -0.644531 9.332031 -0.304688 8.625 -0.046875 C 7.925781 0.203125 7.128906 0.328125 6.234375 0.328125 Z M 6.234375 0.328125 "/></g></g></g><g fill="#000000" fill-opacity="1"><g transform="translate(193.257296, 110.076148)"><g><path d="M 9.140625 0.328125 C 7.984375 0.328125 6.90625 0.117188 5.90625 -0.296875 C 4.90625 -0.710938 4.039062 -1.273438 3.3125 -1.984375 C 2.582031 -2.703125 2.007812 -3.535156 1.59375 -4.484375 C 1.175781 -5.441406 0.96875 -6.457031 0.96875 -7.53125 C 0.96875 -8.601562 1.175781 -9.613281 1.59375 -10.5625 C 2.007812 -11.519531 2.582031 -12.351562 3.3125 -13.0625 C 4.039062 -13.78125 4.90625 -14.347656 5.90625 -14.765625 C 6.90625 -15.179688 7.984375 -15.390625 9.140625 -15.390625 C 10.304688 -15.390625 11.382812 -15.179688 12.375 -14.765625 C 13.375 -14.347656 14.238281 -13.78125 14.96875 -13.0625 C 15.707031 -12.351562 16.28125 -11.519531 16.6875 -10.5625 C 17.101562 -9.613281 17.3125 -8.601562 17.3125 -7.53125 C 17.3125 -6.457031 17.101562 -5.441406 16.6875 -4.484375 C 16.28125 -3.535156 15.707031 -2.703125 14.96875 -1.984375 C 14.238281 -1.273438 13.375 -0.710938 12.375 -0.296875 C 11.382812 0.117188 10.304688 0.328125 9.140625 0.328125 Z M 9.140625 -2.6875 C 9.816406 -2.6875 10.445312 -2.8125 11.03125 -3.0625 C 11.625 -3.3125 12.140625 -3.65625 12.578125 -4.09375 C 13.015625 -4.53125 13.359375 -5.039062 13.609375 -5.625 C 13.859375 -6.21875 13.984375 -6.851562 13.984375 -7.53125 C 13.984375 -8.207031 13.859375 -8.835938 13.609375 -9.421875 C 13.359375 -10.015625 13.015625 -10.53125 12.578125 -10.96875 C 12.140625 -11.40625 11.625 -11.75 11.03125 -12 C 10.445312 -12.25 9.816406 -12.375 9.140625 -12.375 C 8.472656 -12.375 7.84375 -12.25 7.25 -12 C 6.664062 -11.75 6.15625 -11.40625 5.71875 -10.96875 C 5.28125 -10.53125 4.929688 -10.015625 4.671875 -9.421875 C 4.421875 -8.835938 4.296875 -8.207031 4.296875 -7.53125 C 4.296875 -6.851562 4.421875 -6.21875 4.671875 -5.625 C 4.929688 -5.039062 5.28125 -4.53125 5.71875 -4.09375 C 6.15625 -3.65625 6.664062 -3.3125 7.25 -3.0625 C 7.84375 -2.8125 8.472656 -2.6875 9.140625 -2.6875 Z M 9.140625 -2.6875 "/></g></g></g><g fill="#000000" fill-opacity="1"><g transform="translate(211.546999, 110.076148)"><g><path d="M 1.9375 -15.0625 L 5.15625 -15.0625 L 5.15625 0 L 1.9375 0 Z M 1.9375 -15.0625 "/></g></g></g><g fill="#000000" fill-opacity="1"><g transform="translate(218.647703, 110.076148)"><g><path d="M 1.9375 -15.0625 L 5.15625 -15.0625 L 5.15625 -8.609375 L 10.96875 -15.0625 L 14.84375 -15.0625 L 9.25 -8.828125 L 15.28125 0 L 11.515625 0 L 7.09375 -6.453125 L 5.15625 -4.40625 L 5.15625 0 L 1.9375 0 Z M 1.9375 -15.0625 "/></g></g></g><g fill="#000000" fill-opacity="1"><g transform="translate(233.709812, 110.076148)"><g><path d="M 1.9375 -15.0625 L 4.84375 -15.0625 L 12.15625 -5.703125 L 12.15625 -15.0625 L 15.390625 -15.0625 L 15.390625 0 L 12.484375 0 L 5.15625 -9.359375 L 5.15625 0 L 1.9375 0 Z M 1.9375 -15.0625 "/></g></g></g><g fill="#000000" fill-opacity="1"><g transform="translate(251.031223, 110.076148)"><g><path d="M 9.140625 0.328125 C 7.984375 0.328125 6.90625 0.117188 5.90625 -0.296875 C 4.90625 -0.710938 4.039062 -1.273438 3.3125 -1.984375 C 2.582031 -2.703125 2.007812 -3.535156 1.59375 -4.484375 C 1.175781 -5.441406 0.96875 -6.457031 0.96875 -7.53125 C 0.96875 -8.601562 1.175781 -9.613281 1.59375 -10.5625 C 2.007812 -11.519531 2.582031 -12.351562 3.3125 -13.0625 C 4.039062 -13.78125 4.90625 -14.347656 5.90625 -14.765625 C 6.90625 -15.179688 7.984375 -15.390625 9.140625 -15.390625 C 10.304688 -15.390625 11.382812 -15.179688 12.375 -14.765625 C 13.375 -14.347656 14.238281 -13.78125 14.96875 -13.0625 C 15.707031 -12.351562 16.28125 -11.519531 16.6875 -10.5625 C 17.101562 -9.613281 17.3125 -8.601562 17.3125 -7.53125 C 17.3125 -6.457031 17.101562 -5.441406 16.6875 -4.484375 C 16.28125 -3.535156 15.707031 -2.703125 14.96875 -1.984375 C 14.238281 -1.273438 13.375 -0.710938 12.375 -0.296875 C 11.382812 0.117188 10.304688 0.328125 9.140625 0.328125 Z M 9.140625 -2.6875 C 9.816406 -2.6875 10.445312 -2.8125 11.03125 -3.0625 C 11.625 -3.3125 12.140625 -3.65625 12.578125 -4.09375 C 13.015625 -4.53125 13.359375 -5.039062 13.609375 -5.625 C 13.859375 -6.21875 13.984375 -6.851562 13.984375 -7.53125 C 13.984375 -8.207031 13.859375 -8.835938 13.609375 -9.421875 C 13.359375 -10.015625 13.015625 -10.53125 12.578125 -10.96875 C 12.140625 -11.40625 11.625 -11.75 11.03125 -12 C 10.445312 -12.25 9.816406 -12.375 9.140625 -12.375 C 8.472656 -12.375 7.84375 -12.25 7.25 -12 C 6.664062 -11.75 6.15625 -11.40625 5.71875 -10.96875 C 5.28125 -10.53125 4.929688 -10.015625 4.671875 -9.421875 C 4.421875 -8.835938 4.296875 -8.207031 4.296875 -7.53125 C 4.296875 -6.851562 4.421875 -6.21875 4.671875 -5.625 C 4.929688 -5.039062 5.28125 -4.53125 5.71875 -4.09375 C 6.15625 -3.65625 6.664062 -3.3125 7.25 -3.0625 C 7.84375 -2.8125 8.472656 -2.6875 9.140625 -2.6875 Z M 9.140625 -2.6875 "/></g></g></g><g fill="#000000" fill-opacity="1"><g transform="translate(269.320914, 110.076148)"><g><path d="M 0.328125 -15.0625 L 3.65625 -15.0625 L 6.78125 -4.953125 L 6.890625 -4.953125 L 10 -15.0625 L 13.015625 -15.0625 L 16.140625 -4.953125 L 16.25 -4.953125 L 19.359375 -15.0625 L 22.703125 -15.0625 L 17.75 0 L 14.625 0 L 11.578125 -9.796875 L 11.453125 -9.796875 L 8.390625 0 L 5.265625 0 Z M 0.328125 -15.0625 "/></g></g></g><g fill="#000000" fill-opacity="1"><g transform="translate(292.344416, 110.076148)"><g><path d="M 1.9375 -15.0625 L 5.15625 -15.0625 L 5.15625 0 L 1.9375 0 Z M 1.9375 -15.0625 "/></g></g></g><g fill="#000000" fill-opacity="1"><g transform="translate(299.445132, 110.076148)"><g><path d="M 4.734375 -12.046875 L 0.4375 -12.046875 L 0.4375 -15.0625 L 12.265625 -15.0625 L 12.265625 -12.046875 L 7.953125 -12.046875 L 7.953125 0 L 4.734375 0 Z M 4.734375 -12.046875 "/></g></g></g><g fill="#000000" fill-opacity="1"><g transform="translate(312.140324, 110.076148)"><g><path d="M 6.234375 0.328125 C 5.265625 0.328125 4.414062 0.207031 3.6875 -0.03125 C 2.96875 -0.28125 2.363281 -0.554688 1.875 -0.859375 C 1.300781 -1.203125 0.820312 -1.597656 0.4375 -2.046875 L 2.578125 -4.203125 C 2.835938 -3.898438 3.144531 -3.625 3.5 -3.375 C 3.800781 -3.175781 4.171875 -2.992188 4.609375 -2.828125 C 5.046875 -2.660156 5.550781 -2.578125 6.125 -2.578125 C 6.988281 -2.578125 7.617188 -2.742188 8.015625 -3.078125 C 8.410156 -3.410156 8.609375 -3.816406 8.609375 -4.296875 C 8.609375 -4.734375 8.421875 -5.078125 8.046875 -5.328125 C 7.671875 -5.578125 7.203125 -5.800781 6.640625 -6 C 6.085938 -6.195312 5.488281 -6.40625 4.84375 -6.625 C 4.195312 -6.84375 3.59375 -7.125 3.03125 -7.46875 C 2.46875 -7.820312 2 -8.273438 1.625 -8.828125 C 1.257812 -9.378906 1.078125 -10.09375 1.078125 -10.96875 C 1.078125 -11.5625 1.203125 -12.125 1.453125 -12.65625 C 1.703125 -13.195312 2.0625 -13.664062 2.53125 -14.0625 C 3 -14.46875 3.570312 -14.789062 4.25 -15.03125 C 4.925781 -15.269531 5.695312 -15.390625 6.5625 -15.390625 C 7.394531 -15.390625 8.128906 -15.28125 8.765625 -15.0625 C 9.398438 -14.84375 9.925781 -14.601562 10.34375 -14.34375 C 10.832031 -14.050781 11.257812 -13.71875 11.625 -13.34375 L 9.46875 -11.1875 C 9.238281 -11.425781 8.988281 -11.640625 8.71875 -11.828125 C 8.46875 -11.984375 8.171875 -12.128906 7.828125 -12.265625 C 7.484375 -12.410156 7.097656 -12.484375 6.671875 -12.484375 C 5.847656 -12.484375 5.265625 -12.335938 4.921875 -12.046875 C 4.578125 -11.765625 4.40625 -11.40625 4.40625 -10.96875 C 4.40625 -10.539062 4.59375 -10.203125 4.96875 -9.953125 C 5.34375 -9.703125 5.804688 -9.472656 6.359375 -9.265625 C 6.921875 -9.066406 7.523438 -8.859375 8.171875 -8.640625 C 8.816406 -8.429688 9.421875 -8.148438 9.984375 -7.796875 C 10.546875 -7.441406 11.007812 -6.988281 11.375 -6.4375 C 11.75 -5.882812 11.9375 -5.171875 11.9375 -4.296875 C 11.9375 -3.679688 11.804688 -3.09375 11.546875 -2.53125 C 11.296875 -1.976562 10.921875 -1.488281 10.421875 -1.0625 C 9.929688 -0.644531 9.332031 -0.304688 8.625 -0.046875 C 7.925781 0.203125 7.128906 0.328125 6.234375 0.328125 Z M 6.234375 0.328125 "/></g></g></g><g fill="#000000" fill-opacity="1"><g transform="translate(324.727925, 110.076148)"><g><path d="M 1.9375 -15.0625 L 8.609375 -15.0625 C 9.410156 -15.0625 10.132812 -14.9375 10.78125 -14.6875 C 11.4375 -14.445312 11.992188 -14.101562 12.453125 -13.65625 C 12.910156 -13.21875 13.257812 -12.6875 13.5 -12.0625 C 13.75 -11.4375 13.875 -10.75 13.875 -10 C 13.875 -9.144531 13.738281 -8.429688 13.46875 -7.859375 C 13.207031 -7.285156 12.914062 -6.832031 12.59375 -6.5 C 12.21875 -6.113281 11.785156 -5.8125 11.296875 -5.59375 L 14.421875 0 L 10.859375 0 L 8.171875 -4.953125 L 5.15625 -4.953125 L 5.15625 0 L 1.9375 0 Z M 8.5 -7.953125 C 9.101562 -7.953125 9.59375 -8.140625 9.96875 -8.515625 C 10.351562 -8.898438 10.546875 -9.394531 10.546875 -10 C 10.546875 -10.601562 10.351562 -11.09375 9.96875 -11.46875 C 9.59375 -11.851562 9.101562 -12.046875 8.5 -12.046875 L 5.15625 -12.046875 L 5.15625 -7.953125 Z M 8.5 -7.953125 "/></g></g></g><g fill="#000000" fill-opacity="1"><g transform="translate(339.897614, 110.076148)"><g><path d="M 1.9375 -15.0625 L 13.125 -15.0625 L 13.125 -12.046875 L 5.15625 -12.046875 L 5.15625 -9.140625 L 11.40625 -9.140625 L 11.40625 -6.234375 L 5.15625 -6.234375 L 5.15625 -3.015625 L 13.34375 -3.015625 L 13.34375 0 L 1.9375 0 Z M 1.9375 -15.0625 "/></g></g></g><g fill="#000000" fill-opacity="1"><g transform="translate(354.206615, 110.076148)"><g><path d="M 5.921875 -15.0625 L 9.578125 -15.0625 L 15.390625 0 L 11.9375 0 L 10.65625 -3.4375 L 4.84375 -3.4375 L 3.546875 0 L 0.109375 0 Z M 9.578125 -6.34375 L 7.78125 -11.296875 L 7.703125 -11.296875 L 5.921875 -6.34375 Z M 9.578125 -6.34375 "/></g></g></g><g fill="#000000" fill-opacity="1"><g transform="translate(369.699057, 110.076148)"><g><path d="M 1.9375 -15.0625 L 5.15625 -15.0625 L 5.15625 -3.015625 L 12.15625 -3.015625 L 12.15625 0 L 1.9375 0 Z M 1.9375 -15.0625 "/></g></g></g><g fill="#000000" fill-opacity="1"><g transform="translate(732.435256, 63.395294)"><g><path d="M 2.265625 -15.0625 L 3.65625 -15.0625 L 12.90625 -2.90625 L 12.90625 -15.0625 L 14.515625 -15.0625 L 14.515625 0 L 13.125 0 L 3.875 -12.15625 L 3.875 0 L 2.265625 0 Z M 2.265625 -15.0625 "/></g></g></g><g fill="#000000" fill-opacity="1"><g transform="translate(749.214915, 63.395294)"><g><path d="M 3.875 0.21875 C 3.269531 0.21875 2.742188 0.128906 2.296875 -0.046875 C 1.859375 -0.234375 1.476562 -0.429688 1.15625 -0.640625 C 0.789062 -0.898438 0.476562 -1.1875 0.21875 -1.5 L 1.296875 -2.578125 C 1.460938 -2.335938 1.675781 -2.125 1.9375 -1.9375 C 2.15625 -1.78125 2.425781 -1.632812 2.75 -1.5 C 3.070312 -1.363281 3.445312 -1.296875 3.875 -1.296875 C 4.789062 -1.296875 5.519531 -1.570312 6.0625 -2.125 C 6.613281 -2.675781 6.890625 -3.4375 6.890625 -4.40625 L 6.890625 -15.0625 L 8.5 -15.0625 L 8.5 -4.40625 C 8.5 -3.738281 8.382812 -3.117188 8.15625 -2.546875 C 7.925781 -1.984375 7.601562 -1.492188 7.1875 -1.078125 C 6.78125 -0.671875 6.296875 -0.351562 5.734375 -0.125 C 5.171875 0.101562 4.550781 0.21875 3.875 0.21875 Z M 3.875 0.21875 "/></g></g></g><g fill="#000000" fill-opacity="1"><g transform="translate(759.863545, 63.395294)"><g><path d="M 6.453125 -15.28125 L 7.859375 -15.28125 L 1.40625 4.515625 L 0 4.515625 Z M 6.453125 -15.28125 "/></g></g></g><g fill="#000000" fill-opacity="1"><g transform="translate(767.715567, 63.395294)"><g><path d="M 2.265625 -15.0625 L 3.65625 -15.0625 L 12.90625 -2.90625 L 12.90625 -15.0625 L 14.515625 -15.0625 L 14.515625 0 L 13.125 0 L 3.875 -12.15625 L 3.875 0 L 2.265625 0 Z M 2.265625 -15.0625 "/></g></g></g><g fill="#000000" fill-opacity="1"><g transform="translate(784.495225, 63.395294)"><g><path d="M 6.03125 -5.265625 L 0.4375 -15.0625 L 2.265625 -15.0625 L 6.78125 -7 L 6.890625 -7 L 11.40625 -15.0625 L 13.234375 -15.0625 L 7.640625 -5.265625 L 7.640625 0 L 6.03125 0 Z M 6.03125 -5.265625 "/></g></g></g><g fill="#000000" fill-opacity="1"><g transform="translate(798.155586, 63.395294)"><g><path d="M 9.03125 0.21875 C 7.957031 0.21875 6.953125 0.0195312 6.015625 -0.375 C 5.078125 -0.78125 4.253906 -1.332031 3.546875 -2.03125 C 2.847656 -2.738281 2.296875 -3.5625 1.890625 -4.5 C 1.492188 -5.445312 1.296875 -6.457031 1.296875 -7.53125 C 1.296875 -8.601562 1.492188 -9.609375 1.890625 -10.546875 C 2.296875 -11.492188 2.847656 -12.316406 3.546875 -13.015625 C 4.253906 -13.722656 5.078125 -14.273438 6.015625 -14.671875 C 6.953125 -15.078125 7.957031 -15.28125 9.03125 -15.28125 C 10.0625 -15.28125 10.957031 -15.113281 11.71875 -14.78125 C 12.476562 -14.445312 13.117188 -14.085938 13.640625 -13.703125 C 14.222656 -13.242188 14.734375 -12.726562 15.171875 -12.15625 L 14.09375 -11.1875 C 13.75 -11.675781 13.332031 -12.109375 12.84375 -12.484375 C 12.425781 -12.804688 11.898438 -13.097656 11.265625 -13.359375 C 10.640625 -13.628906 9.894531 -13.765625 9.03125 -13.765625 C 8.175781 -13.765625 7.375 -13.609375 6.625 -13.296875 C 5.882812 -12.984375 5.234375 -12.546875 4.671875 -11.984375 C 4.117188 -11.421875 3.6875 -10.757812 3.375 -10 C 3.0625 -9.238281 2.90625 -8.414062 2.90625 -7.53125 C 2.90625 -6.644531 3.0625 -5.820312 3.375 -5.0625 C 3.6875 -4.300781 4.117188 -3.640625 4.671875 -3.078125 C 5.234375 -2.515625 5.882812 -2.078125 6.625 -1.765625 C 7.375 -1.453125 8.175781 -1.296875 9.03125 -1.296875 C 9.894531 -1.296875 10.648438 -1.425781 11.296875 -1.6875 C 11.941406 -1.957031 12.476562 -2.253906 12.90625 -2.578125 C 13.40625 -2.953125 13.835938 -3.382812 14.203125 -3.875 L 15.28125 -2.90625 C 14.832031 -2.3125 14.300781 -1.785156 13.6875 -1.328125 C 13.15625 -0.941406 12.503906 -0.585938 11.734375 -0.265625 C 10.960938 0.0546875 10.0625 0.21875 9.03125 0.21875 Z M 9.03125 0.21875 "/></g></g></g><g fill="#000000" fill-opacity="1"><g transform="translate(814.289876, 63.395294)"><g/></g></g><g fill="#000000" fill-opacity="1"><g transform="translate(818.807478, 63.395294)"><g><path d="M 2.265625 -15.0625 L 7.953125 -15.0625 C 8.660156 -15.0625 9.304688 -14.9375 9.890625 -14.6875 C 10.484375 -14.445312 10.992188 -14.113281 11.421875 -13.6875 C 11.847656 -13.269531 12.179688 -12.773438 12.421875 -12.203125 C 12.671875 -11.628906 12.796875 -11.003906 12.796875 -10.328125 C 12.796875 -9.648438 12.671875 -9.023438 12.421875 -8.453125 C 12.179688 -7.878906 11.847656 -7.378906 11.421875 -6.953125 C 10.992188 -6.535156 10.484375 -6.203125 9.890625 -5.953125 C 9.304688 -5.710938 8.660156 -5.59375 7.953125 -5.59375 L 3.875 -5.59375 L 3.875 0 L 2.265625 0 Z M 7.953125 -7.09375 C 8.929688 -7.09375 9.710938 -7.382812 10.296875 -7.96875 C 10.890625 -8.5625 11.1875 -9.347656 11.1875 -10.328125 C 11.1875 -11.304688 10.890625 -12.085938 10.296875 -12.671875 C 9.710938 -13.265625 8.929688 -13.5625 7.953125 -13.5625 L 3.875 -13.5625 L 3.875 -7.09375 Z M 7.953125 -7.09375 "/></g></g></g><g fill="#000000" fill-opacity="1"><g transform="translate(832.790528, 63.395294)"><g><path d="M 2.265625 -15.0625 L 3.875 -15.0625 L 3.875 -8.390625 L 12.265625 -8.390625 L 12.265625 -15.0625 L 13.875 -15.0625 L 13.875 0 L 12.265625 0 L 12.265625 -6.890625 L 3.875 -6.890625 L 3.875 0 L 2.265625 0 Z M 2.265625 -15.0625 "/></g></g></g><g fill="#000000" fill-opacity="1"><g transform="translate(848.924818, 63.395294)"><g><path d="M 9.03125 0.21875 C 7.957031 0.21875 6.953125 0.0195312 6.015625 -0.375 C 5.078125 -0.78125 4.253906 -1.332031 3.546875 -2.03125 C 2.847656 -2.738281 2.296875 -3.5625 1.890625 -4.5 C 1.492188 -5.445312 1.296875 -6.457031 1.296875 -7.53125 C 1.296875 -8.601562 1.492188 -9.609375 1.890625 -10.546875 C 2.296875 -11.492188 2.847656 -12.316406 3.546875 -13.015625 C 4.253906 -13.722656 5.078125 -14.273438 6.015625 -14.671875 C 6.953125 -15.078125 7.957031 -15.28125 9.03125 -15.28125 C 10.113281 -15.28125 11.125 -15.078125 12.0625 -14.671875 C 13 -14.273438 13.816406 -13.722656 14.515625 -13.015625 C 15.222656 -12.316406 15.773438 -11.492188 16.171875 -10.546875 C 16.578125 -9.609375 16.78125 -8.601562 16.78125 -7.53125 C 16.78125 -6.457031 16.578125 -5.445312 16.171875 -4.5 C 15.773438 -3.5625 15.222656 -2.738281 14.515625 -2.03125 C 13.816406 -1.332031 13 -0.78125 12.0625 -0.375 C 11.125 0.0195312 10.113281 0.21875 9.03125 0.21875 Z M 9.03125 -1.296875 C 9.894531 -1.296875 10.695312 -1.453125 11.4375 -1.765625 C 12.1875 -2.078125 12.835938 -2.515625 13.390625 -3.078125 C 13.941406 -3.640625 14.375 -4.300781 14.6875 -5.0625 C 15.007812 -5.820312 15.171875 -6.644531 15.171875 -7.53125 C 15.171875 -8.414062 15.007812 -9.238281 14.6875 -10 C 14.375 -10.757812 13.941406 -11.421875 13.390625 -11.984375 C 12.835938 -12.546875 12.1875 -12.984375 11.4375 -13.296875 C 10.695312 -13.609375 9.894531 -13.765625 9.03125 -13.765625 C 8.175781 -13.765625 7.375 -13.609375 6.625 -13.296875 C 5.882812 -12.984375 5.234375 -12.546875 4.671875 -11.984375 C 4.117188 -11.421875 3.6875 -10.757812 3.375 -10 C 3.0625 -9.238281 2.90625 -8.414062 2.90625 -7.53125 C 2.90625 -6.644531 3.0625 -5.820312 3.375 -5.0625 C 3.6875 -4.300781 4.117188 -3.640625 4.671875 -3.078125 C 5.234375 -2.515625 5.882812 -2.078125 6.625 -1.765625 C 7.375 -1.453125 8.175781 -1.296875 9.03125 -1.296875 Z M 9.03125 -1.296875 "/></g></g></g><g fill="#000000" fill-opacity="1"><g transform="translate(866.995225, 63.395294)"><g><path d="M 5.15625 -13.5625 L 0.4375 -13.5625 L 0.4375 -15.0625 L 11.515625 -15.0625 L 11.515625 -13.5625 L 6.78125 -13.5625 L 6.78125 0 L 5.15625 0 Z M 5.15625 -13.5625 "/></g></g></g><g fill="#000000" fill-opacity="1"><g transform="translate(878.934603, 63.395294)"><g><path d="M 9.03125 0.21875 C 7.957031 0.21875 6.953125 0.0195312 6.015625 -0.375 C 5.078125 -0.78125 4.253906 -1.332031 3.546875 -2.03125 C 2.847656 -2.738281 2.296875 -3.5625 1.890625 -4.5 C 1.492188 -5.445312 1.296875 -6.457031 1.296875 -7.53125 C 1.296875 -8.601562 1.492188 -9.609375 1.890625 -10.546875 C 2.296875 -11.492188 2.847656 -12.316406 3.546875 -13.015625 C 4.253906 -13.722656 5.078125 -14.273438 6.015625 -14.671875 C 6.953125 -15.078125 7.957031 -15.28125 9.03125 -15.28125 C 10.113281 -15.28125 11.125 -15.078125 12.0625 -14.671875 C 13 -14.273438 13.816406 -13.722656 14.515625 -13.015625 C 15.222656 -12.316406 15.773438 -11.492188 16.171875 -10.546875 C 16.578125 -9.609375 16.78125 -8.601562 16.78125 -7.53125 C 16.78125 -6.457031 16.578125 -5.445312 16.171875 -4.5 C 15.773438 -3.5625 15.222656 -2.738281 14.515625 -2.03125 C 13.816406 -1.332031 13 -0.78125 12.0625 -0.375 C 11.125 0.0195312 10.113281 0.21875 9.03125 0.21875 Z M 9.03125 -1.296875 C 9.894531 -1.296875 10.695312 -1.453125 11.4375 -1.765625 C 12.1875 -2.078125 12.835938 -2.515625 13.390625 -3.078125 C 13.941406 -3.640625 14.375 -4.300781 14.6875 -5.0625 C 15.007812 -5.820312 15.171875 -6.644531 15.171875 -7.53125 C 15.171875 -8.414062 15.007812 -9.238281 14.6875 -10 C 14.375 -10.757812 13.941406 -11.421875 13.390625 -11.984375 C 12.835938 -12.546875 12.1875 -12.984375 11.4375 -13.296875 C 10.695312 -13.609375 9.894531 -13.765625 9.03125 -13.765625 C 8.175781 -13.765625 7.375 -13.609375 6.625 -13.296875 C 5.882812 -12.984375 5.234375 -12.546875 4.671875 -11.984375 C 4.117188 -11.421875 3.6875 -10.757812 3.375 -10 C 3.0625 -9.238281 2.90625 -8.414062 2.90625 -7.53125 C 2.90625 -6.644531 3.0625 -5.820312 3.375 -5.0625 C 3.6875 -4.300781 4.117188 -3.640625 4.671875 -3.078125 C 5.234375 -2.515625 5.882812 -2.078125 6.625 -1.765625 C 7.375 -1.453125 8.175781 -1.296875 9.03125 -1.296875 Z M 9.03125 -1.296875 "/></g></g></g><g fill="#000000" fill-opacity="1"><g transform="translate(897.00501, 63.395294)"><g><path d="M 9.03125 0.21875 C 7.957031 0.21875 6.953125 0.0195312 6.015625 -0.375 C 5.078125 -0.78125 4.253906 -1.332031 3.546875 -2.03125 C 2.847656 -2.738281 2.296875 -3.5625 1.890625 -4.5 C 1.492188 -5.445312 1.296875 -6.457031 1.296875 -7.53125 C 1.296875 -8.601562 1.492188 -9.609375 1.890625 -10.546875 C 2.296875 -11.492188 2.847656 -12.316406 3.546875 -13.015625 C 4.253906 -13.722656 5.078125 -14.273438 6.015625 -14.671875 C 6.953125 -15.078125 7.957031 -15.28125 9.03125 -15.28125 C 10.0625 -15.28125 10.957031 -15.113281 11.71875 -14.78125 C 12.476562 -14.445312 13.117188 -14.085938 13.640625 -13.703125 C 14.222656 -13.242188 14.734375 -12.726562 15.171875 -12.15625 L 14.09375 -11.1875 C 13.75 -11.675781 13.332031 -12.109375 12.84375 -12.484375 C 12.425781 -12.804688 11.898438 -13.097656 11.265625 -13.359375 C 10.640625 -13.628906 9.894531 -13.765625 9.03125 -13.765625 C 8.175781 -13.765625 7.375 -13.609375 6.625 -13.296875 C 5.882812 -12.984375 5.234375 -12.546875 4.671875 -11.984375 C 4.117188 -11.421875 3.6875 -10.757812 3.375 -10 C 3.0625 -9.238281 2.90625 -8.414062 2.90625 -7.53125 C 2.90625 -6.644531 3.0625 -5.820312 3.375 -5.0625 C 3.6875 -4.300781 4.117188 -3.640625 4.671875 -3.078125 C 5.234375 -2.515625 5.882812 -2.078125 6.625 -1.765625 C 7.375 -1.453125 8.175781 -1.296875 9.03125 -1.296875 C 9.851562 -1.296875 10.554688 -1.398438 11.140625 -1.609375 C 11.734375 -1.816406 12.222656 -2.046875 12.609375 -2.296875 C 13.066406 -2.597656 13.453125 -2.941406 13.765625 -3.328125 L 13.765625 -6.234375 L 10.328125 -6.234375 L 10.328125 -7.75 L 15.390625 -7.75 L 15.390625 -2.90625 C 14.921875 -2.3125 14.375 -1.785156 13.75 -1.328125 C 13.207031 -0.941406 12.539062 -0.585938 11.75 -0.265625 C 10.96875 0.0546875 10.0625 0.21875 9.03125 0.21875 Z M 9.03125 0.21875 "/></g></g></g><g fill="#000000" fill-opacity="1"><g transform="translate(914.107358, 63.395294)"><g><path d="M 2.265625 -15.0625 L 8.28125 -15.0625 C 8.957031 -15.0625 9.578125 -14.945312 10.140625 -14.71875 C 10.710938 -14.488281 11.203125 -14.171875 11.609375 -13.765625 C 12.015625 -13.367188 12.332031 -12.894531 12.5625 -12.34375 C 12.789062 -11.789062 12.90625 -11.191406 12.90625 -10.546875 C 12.90625 -9.679688 12.738281 -8.972656 12.40625 -8.421875 C 12.082031 -7.867188 11.726562 -7.425781 11.34375 -7.09375 C 10.882812 -6.726562 10.367188 -6.441406 9.796875 -6.234375 L 13.34375 0 L 11.515625 0 L 8.171875 -6.03125 L 3.875 -6.03125 L 3.875 0 L 2.265625 0 Z M 8.28125 -7.53125 C 9.195312 -7.53125 9.925781 -7.800781 10.46875 -8.34375 C 11.019531 -8.894531 11.296875 -9.628906 11.296875 -10.546875 C 11.296875 -11.460938 11.019531 -12.191406 10.46875 -12.734375 C 9.925781 -13.285156 9.195312 -13.5625 8.28125 -13.5625 L 3.875 -13.5625 L 3.875 -7.53125 Z M 8.28125 -7.53125 "/></g></g></g><g fill="#000000" fill-opacity="1"><g transform="translate(928.62821, 63.395294)"><g><path d="M 6.671875 -15.0625 L 8.171875 -15.0625 L 14.421875 0 L 12.6875 0 L 10.96875 -4.203125 L 3.875 -4.203125 L 2.15625 0 L 0.4375 0 Z M 10.328125 -5.703125 L 7.421875 -12.796875 L 4.515625 -5.703125 Z M 10.328125 -5.703125 "/></g></g></g><g fill="#000000" fill-opacity="1"><g transform="translate(943.471763, 63.395294)"><g><path d="M 2.265625 -15.0625 L 7.953125 -15.0625 C 8.660156 -15.0625 9.304688 -14.9375 9.890625 -14.6875 C 10.484375 -14.445312 10.992188 -14.113281 11.421875 -13.6875 C 11.847656 -13.269531 12.179688 -12.773438 12.421875 -12.203125 C 12.671875 -11.628906 12.796875 -11.003906 12.796875 -10.328125 C 12.796875 -9.648438 12.671875 -9.023438 12.421875 -8.453125 C 12.179688 -7.878906 11.847656 -7.378906 11.421875 -6.953125 C 10.992188 -6.535156 10.484375 -6.203125 9.890625 -5.953125 C 9.304688 -5.710938 8.660156 -5.59375 7.953125 -5.59375 L 3.875 -5.59375 L 3.875 0 L 2.265625 0 Z M 7.953125 -7.09375 C 8.929688 -7.09375 9.710938 -7.382812 10.296875 -7.96875 C 10.890625 -8.5625 11.1875 -9.347656 11.1875 -10.328125 C 11.1875 -11.304688 10.890625 -12.085938 10.296875 -12.671875 C 9.710938 -13.265625 8.929688 -13.5625 7.953125 -13.5625 L 3.875 -13.5625 L 3.875 -7.09375 Z M 7.953125 -7.09375 "/></g></g></g><g fill="#000000" fill-opacity="1"><g transform="translate(957.454825, 63.395294)"><g><path d="M 2.265625 -15.0625 L 3.875 -15.0625 L 3.875 -8.390625 L 12.265625 -8.390625 L 12.265625 -15.0625 L 13.875 -15.0625 L 13.875 0 L 12.265625 0 L 12.265625 -6.890625 L 3.875 -6.890625 L 3.875 0 L 2.265625 0 Z M 2.265625 -15.0625 "/></g></g></g><g fill="#000000" fill-opacity="1"><g transform="translate(973.589115, 63.395294)"><g><path d="M 2.265625 -15.0625 L 12.59375 -15.0625 L 12.59375 -13.5625 L 3.875 -13.5625 L 3.875 -8.609375 L 10.859375 -8.609375 L 10.859375 -7.09375 L 3.875 -7.09375 L 3.875 -1.5 L 12.796875 -1.5 L 12.796875 0 L 2.265625 0 Z M 2.265625 -15.0625 "/></g></g></g><g fill="#000000" fill-opacity="1"><g transform="translate(987.357043, 63.395294)"><g><path d="M 2.265625 -15.0625 L 8.28125 -15.0625 C 8.957031 -15.0625 9.578125 -14.945312 10.140625 -14.71875 C 10.710938 -14.488281 11.203125 -14.171875 11.609375 -13.765625 C 12.015625 -13.367188 12.332031 -12.894531 12.5625 -12.34375 C 12.789062 -11.789062 12.90625 -11.191406 12.90625 -10.546875 C 12.90625 -9.679688 12.738281 -8.972656 12.40625 -8.421875 C 12.082031 -7.867188 11.726562 -7.425781 11.34375 -7.09375 C 10.882812 -6.726562 10.367188 -6.441406 9.796875 -6.234375 L 13.34375 0 L 11.515625 0 L 8.171875 -6.03125 L 3.875 -6.03125 L 3.875 0 L 2.265625 0 Z M 8.28125 -7.53125 C 9.195312 -7.53125 9.925781 -7.800781 10.46875 -8.34375 C 11.019531 -8.894531 11.296875 -9.628906 11.296875 -10.546875 C 11.296875 -11.460938 11.019531 -12.191406 10.46875 -12.734375 C 9.925781 -13.285156 9.195312 -13.5625 8.28125 -13.5625 L 3.875 -13.5625 L 3.875 -7.53125 Z M 8.28125 -7.53125 "/></g></g></g><g fill="#000000" fill-opacity="1"><g transform="translate(569.538999, 106.558661)"><g><path d="M 2.265625 -15.0625 L 7.953125 -15.0625 C 8.660156 -15.0625 9.304688 -14.9375 9.890625 -14.6875 C 10.484375 -14.445312 10.992188 -14.113281 11.421875 -13.6875 C 11.847656 -13.269531 12.179688 -12.773438 12.421875 -12.203125 C 12.671875 -11.628906 12.796875 -11.003906 12.796875 -10.328125 C 12.796875 -9.648438 12.671875 -9.023438 12.421875 -8.453125 C 12.179688 -7.878906 11.847656 -7.378906 11.421875 -6.953125 C 10.992188 -6.535156 10.484375 -6.203125 9.890625 -5.953125 C 9.304688 -5.710938 8.660156 -5.59375 7.953125 -5.59375 L 3.875 -5.59375 L 3.875 0 L 2.265625 0 Z M 7.953125 -7.09375 C 8.929688 -7.09375 9.710938 -7.382812 10.296875 -7.96875 C 10.890625 -8.5625 11.1875 -9.347656 11.1875 -10.328125 C 11.1875 -11.304688 10.890625 -12.085938 10.296875 -12.671875 C 9.710938 -13.265625 8.929688 -13.5625 7.953125 -13.5625 L 3.875 -13.5625 L 3.875 -7.09375 Z M 7.953125 -7.09375 "/></g></g></g><g fill="#000000" fill-opacity="1"><g transform="translate(583.522049, 106.558661)"><g><path d="M 2.265625 -15.0625 L 3.875 -15.0625 L 3.875 0 L 2.265625 0 Z M 2.265625 -15.0625 "/></g></g></g><g fill="#000000" fill-opacity="1"><g transform="translate(589.653077, 106.558661)"><g><path d="M 2.265625 -15.0625 L 3.65625 -15.0625 L 12.90625 -2.90625 L 12.90625 -15.0625 L 14.515625 -15.0625 L 14.515625 0 L 13.125 0 L 3.875 -12.15625 L 3.875 0 L 2.265625 0 Z M 2.265625 -15.0625 "/></g></g></g><g fill="#000000" fill-opacity="1"><g transform="translate(606.432736, 106.558661)"><g><path d="M 9.03125 0.21875 C 7.957031 0.21875 6.953125 0.0195312 6.015625 -0.375 C 5.078125 -0.78125 4.253906 -1.332031 3.546875 -2.03125 C 2.847656 -2.738281 2.296875 -3.5625 1.890625 -4.5 C 1.492188 -5.445312 1.296875 -6.457031 1.296875 -7.53125 C 1.296875 -8.601562 1.492188 -9.609375 1.890625 -10.546875 C 2.296875 -11.492188 2.847656 -12.316406 3.546875 -13.015625 C 4.253906 -13.722656 5.078125 -14.273438 6.015625 -14.671875 C 6.953125 -15.078125 7.957031 -15.28125 9.03125 -15.28125 C 10.0625 -15.28125 10.957031 -15.113281 11.71875 -14.78125 C 12.476562 -14.445312 13.117188 -14.085938 13.640625 -13.703125 C 14.222656 -13.242188 14.734375 -12.726562 15.171875 -12.15625 L 14.09375 -11.1875 C 13.75 -11.675781 13.332031 -12.109375 12.84375 -12.484375 C 12.425781 -12.804688 11.898438 -13.097656 11.265625 -13.359375 C 10.640625 -13.628906 9.894531 -13.765625 9.03125 -13.765625 C 8.175781 -13.765625 7.375 -13.609375 6.625 -13.296875 C 5.882812 -12.984375 5.234375 -12.546875 4.671875 -11.984375 C 4.117188 -11.421875 3.6875 -10.757812 3.375 -10 C 3.0625 -9.238281 2.90625 -8.414062 2.90625 -7.53125 C 2.90625 -6.644531 3.0625 -5.820312 3.375 -5.0625 C 3.6875 -4.300781 4.117188 -3.640625 4.671875 -3.078125 C 5.234375 -2.515625 5.882812 -2.078125 6.625 -1.765625 C 7.375 -1.453125 8.175781 -1.296875 9.03125 -1.296875 C 9.894531 -1.296875 10.648438 -1.425781 11.296875 -1.6875 C 11.941406 -1.957031 12.476562 -2.253906 12.90625 -2.578125 C 13.40625 -2.953125 13.835938 -3.382812 14.203125 -3.875 L 15.28125 -2.90625 C 14.832031 -2.3125 14.300781 -1.785156 13.6875 -1.328125 C 13.15625 -0.941406 12.503906 -0.585938 11.734375 -0.265625 C 10.960938 0.0546875 10.0625 0.21875 9.03125 0.21875 Z M 9.03125 0.21875 "/></g></g></g><g fill="#000000" fill-opacity="1"><g transform="translate(622.567026, 106.558661)"><g><path d="M 2.265625 -15.0625 L 3.875 -15.0625 L 3.875 -8.390625 L 12.265625 -8.390625 L 12.265625 -15.0625 L 13.875 -15.0625 L 13.875 0 L 12.265625 0 L 12.265625 -6.890625 L 3.875 -6.890625 L 3.875 0 L 2.265625 0 Z M 2.265625 -15.0625 "/></g></g></g><g fill="#000000" fill-opacity="1"><g transform="translate(638.701316, 106.558661)"><g><path d="M 2.265625 -15.0625 L 3.65625 -15.0625 L 9.890625 -6.890625 L 16.140625 -15.0625 L 17.53125 -15.0625 L 17.53125 0 L 15.921875 0 L 15.921875 -12.265625 L 9.890625 -4.296875 L 3.875 -12.265625 L 3.875 0 L 2.265625 0 Z M 2.265625 -15.0625 "/></g></g></g><g fill="#000000" fill-opacity="1"><g transform="translate(658.492717, 106.558661)"><g><path d="M 2.265625 -15.0625 L 12.59375 -15.0625 L 12.59375 -13.5625 L 3.875 -13.5625 L 3.875 -8.609375 L 10.859375 -8.609375 L 10.859375 -7.09375 L 3.875 -7.09375 L 3.875 -1.5 L 12.796875 -1.5 L 12.796875 0 L 2.265625 0 Z M 2.265625 -15.0625 "/></g></g></g><g fill="#000000" fill-opacity="1"><g transform="translate(672.260644, 106.558661)"><g><path d="M 6.03125 0.21875 C 5.164062 0.21875 4.410156 0.101562 3.765625 -0.125 C 3.128906 -0.351562 2.601562 -0.613281 2.1875 -0.90625 C 1.707031 -1.238281 1.300781 -1.617188 0.96875 -2.046875 L 1.9375 -3.140625 C 2.207031 -2.785156 2.535156 -2.476562 2.921875 -2.21875 C 3.253906 -1.96875 3.675781 -1.75 4.1875 -1.5625 C 4.707031 -1.382812 5.320312 -1.296875 6.03125 -1.296875 C 7.15625 -1.296875 8.007812 -1.554688 8.59375 -2.078125 C 9.175781 -2.597656 9.46875 -3.269531 9.46875 -4.09375 C 9.46875 -4.570312 9.347656 -4.96875 9.109375 -5.28125 C 8.867188 -5.59375 8.554688 -5.851562 8.171875 -6.0625 C 7.796875 -6.28125 7.363281 -6.460938 6.875 -6.609375 C 6.394531 -6.765625 5.894531 -6.921875 5.375 -7.078125 C 4.863281 -7.234375 4.363281 -7.40625 3.875 -7.59375 C 3.382812 -7.789062 2.945312 -8.046875 2.5625 -8.359375 C 2.1875 -8.671875 1.878906 -9.050781 1.640625 -9.5 C 1.410156 -9.945312 1.296875 -10.507812 1.296875 -11.1875 C 1.296875 -11.726562 1.40625 -12.242188 1.625 -12.734375 C 1.84375 -13.234375 2.164062 -13.671875 2.59375 -14.046875 C 3.019531 -14.421875 3.53125 -14.71875 4.125 -14.9375 C 4.71875 -15.164062 5.382812 -15.28125 6.125 -15.28125 C 6.863281 -15.28125 7.503906 -15.175781 8.046875 -14.96875 C 8.585938 -14.769531 9.046875 -14.550781 9.421875 -14.3125 C 9.847656 -14.019531 10.222656 -13.695312 10.546875 -13.34375 L 9.46875 -12.265625 C 9.238281 -12.535156 8.957031 -12.785156 8.625 -13.015625 C 8.34375 -13.203125 7.992188 -13.375 7.578125 -13.53125 C 7.171875 -13.6875 6.6875 -13.765625 6.125 -13.765625 C 5.613281 -13.765625 5.15625 -13.691406 4.75 -13.546875 C 4.351562 -13.410156 4.015625 -13.222656 3.734375 -12.984375 C 3.460938 -12.742188 3.253906 -12.46875 3.109375 -12.15625 C 2.972656 -11.851562 2.90625 -11.53125 2.90625 -11.1875 C 2.90625 -10.539062 3.101562 -10.039062 3.5 -9.6875 C 3.90625 -9.34375 4.410156 -9.054688 5.015625 -8.828125 C 5.628906 -8.597656 6.285156 -8.390625 6.984375 -8.203125 C 7.691406 -8.015625 8.347656 -7.765625 8.953125 -7.453125 C 9.566406 -7.148438 10.070312 -6.734375 10.46875 -6.203125 C 10.875 -5.679688 11.078125 -4.976562 11.078125 -4.09375 C 11.078125 -3.46875 10.960938 -2.894531 10.734375 -2.375 C 10.515625 -1.851562 10.191406 -1.398438 9.765625 -1.015625 C 9.335938 -0.628906 8.804688 -0.328125 8.171875 -0.109375 C 7.546875 0.109375 6.832031 0.21875 6.03125 0.21875 Z M 6.03125 0.21875 "/></g></g></g><g fill="#000000" fill-opacity="1"><g transform="translate(684.415145, 106.558661)"><g><path d="M 9.03125 0.21875 C 7.957031 0.21875 6.953125 0.0195312 6.015625 -0.375 C 5.078125 -0.78125 4.253906 -1.332031 3.546875 -2.03125 C 2.847656 -2.738281 2.296875 -3.5625 1.890625 -4.5 C 1.492188 -5.445312 1.296875 -6.457031 1.296875 -7.53125 C 1.296875 -8.601562 1.492188 -9.609375 1.890625 -10.546875 C 2.296875 -11.492188 2.847656 -12.316406 3.546875 -13.015625 C 4.253906 -13.722656 5.078125 -14.273438 6.015625 -14.671875 C 6.953125 -15.078125 7.957031 -15.28125 9.03125 -15.28125 C 10.113281 -15.28125 11.125 -15.078125 12.0625 -14.671875 C 13 -14.273438 13.816406 -13.722656 14.515625 -13.015625 C 15.222656 -12.316406 15.773438 -11.492188 16.171875 -10.546875 C 16.578125 -9.609375 16.78125 -8.601562 16.78125 -7.53125 C 16.78125 -6.457031 16.578125 -5.445312 16.171875 -4.5 C 15.773438 -3.5625 15.222656 -2.738281 14.515625 -2.03125 C 13.816406 -1.332031 13 -0.78125 12.0625 -0.375 C 11.125 0.0195312 10.113281 0.21875 9.03125 0.21875 Z M 9.03125 -1.296875 C 9.894531 -1.296875 10.695312 -1.453125 11.4375 -1.765625 C 12.1875 -2.078125 12.835938 -2.515625 13.390625 -3.078125 C 13.941406 -3.640625 14.375 -4.300781 14.6875 -5.0625 C 15.007812 -5.820312 15.171875 -6.644531 15.171875 -7.53125 C 15.171875 -8.414062 15.007812 -9.238281 14.6875 -10 C 14.375 -10.757812 13.941406 -11.421875 13.390625 -11.984375 C 12.835938 -12.546875 12.1875 -12.984375 11.4375 -13.296875 C 10.695312 -13.609375 9.894531 -13.765625 9.03125 -13.765625 C 8.175781 -13.765625 7.375 -13.609375 6.625 -13.296875 C 5.882812 -12.984375 5.234375 -12.546875 4.671875 -11.984375 C 4.117188 -11.421875 3.6875 -10.757812 3.375 -10 C 3.0625 -9.238281 2.90625 -8.414062 2.90625 -7.53125 C 2.90625 -6.644531 3.0625 -5.820312 3.375 -5.0625 C 3.6875 -4.300781 4.117188 -3.640625 4.671875 -3.078125 C 5.234375 -2.515625 5.882812 -2.078125 6.625 -1.765625 C 7.375 -1.453125 8.175781 -1.296875 9.03125 -1.296875 Z M 9.03125 -1.296875 "/></g></g></g><g fill="#000000" fill-opacity="1"><g transform="translate(702.485552, 106.558661)"><g><path d="M 2.265625 -15.0625 L 3.875 -15.0625 L 3.875 0 L 2.265625 0 Z M 2.265625 -15.0625 "/></g></g></g><g fill="#000000" fill-opacity="1"><g transform="translate(708.61658, 106.558661)"><g><path d="M 2.265625 -15.0625 L 3.875 -15.0625 L 3.875 -6.5625 L 11.625 -15.0625 L 13.65625 -15.0625 L 7.953125 -8.828125 L 14.203125 0 L 12.265625 0 L 6.890625 -7.640625 L 3.875 -4.40625 L 3.875 0 L 2.265625 0 Z M 2.265625 -15.0625 "/></g></g></g><g fill="#000000" fill-opacity="1"><g transform="translate(723.029876, 106.558661)"><g><path d="M 2.265625 -15.0625 L 3.65625 -15.0625 L 12.90625 -2.90625 L 12.90625 -15.0625 L 14.515625 -15.0625 L 14.515625 0 L 13.125 0 L 3.875 -12.15625 L 3.875 0 L 2.265625 0 Z M 2.265625 -15.0625 "/></g></g></g><g fill="#000000" fill-opacity="1"><g transform="translate(739.809534, 106.558661)"><g><path d="M 9.03125 0.21875 C 7.957031 0.21875 6.953125 0.0195312 6.015625 -0.375 C 5.078125 -0.78125 4.253906 -1.332031 3.546875 -2.03125 C 2.847656 -2.738281 2.296875 -3.5625 1.890625 -4.5 C 1.492188 -5.445312 1.296875 -6.457031 1.296875 -7.53125 C 1.296875 -8.601562 1.492188 -9.609375 1.890625 -10.546875 C 2.296875 -11.492188 2.847656 -12.316406 3.546875 -13.015625 C 4.253906 -13.722656 5.078125 -14.273438 6.015625 -14.671875 C 6.953125 -15.078125 7.957031 -15.28125 9.03125 -15.28125 C 10.113281 -15.28125 11.125 -15.078125 12.0625 -14.671875 C 13 -14.273438 13.816406 -13.722656 14.515625 -13.015625 C 15.222656 -12.316406 15.773438 -11.492188 16.171875 -10.546875 C 16.578125 -9.609375 16.78125 -8.601562 16.78125 -7.53125 C 16.78125 -6.457031 16.578125 -5.445312 16.171875 -4.5 C 15.773438 -3.5625 15.222656 -2.738281 14.515625 -2.03125 C 13.816406 -1.332031 13 -0.78125 12.0625 -0.375 C 11.125 0.0195312 10.113281 0.21875 9.03125 0.21875 Z M 9.03125 -1.296875 C 9.894531 -1.296875 10.695312 -1.453125 11.4375 -1.765625 C 12.1875 -2.078125 12.835938 -2.515625 13.390625 -3.078125 C 13.941406 -3.640625 14.375 -4.300781 14.6875 -5.0625 C 15.007812 -5.820312 15.171875 -6.644531 15.171875 -7.53125 C 15.171875 -8.414062 15.007812 -9.238281 14.6875 -10 C 14.375 -10.757812 13.941406 -11.421875 13.390625 -11.984375 C 12.835938 -12.546875 12.1875 -12.984375 11.4375 -13.296875 C 10.695312 -13.609375 9.894531 -13.765625 9.03125 -13.765625 C 8.175781 -13.765625 7.375 -13.609375 6.625 -13.296875 C 5.882812 -12.984375 5.234375 -12.546875 4.671875 -11.984375 C 4.117188 -11.421875 3.6875 -10.757812 3.375 -10 C 3.0625 -9.238281 2.90625 -8.414062 2.90625 -7.53125 C 2.90625 -6.644531 3.0625 -5.820312 3.375 -5.0625 C 3.6875 -4.300781 4.117188 -3.640625 4.671875 -3.078125 C 5.234375 -2.515625 5.882812 -2.078125 6.625 -1.765625 C 7.375 -1.453125 8.175781 -1.296875 9.03125 -1.296875 Z M 9.03125 -1.296875 "/></g></g></g><g fill="#000000" fill-opacity="1"><g transform="translate(757.879941, 106.558661)"><g><path d="M 0.640625 -15.0625 L 2.359375 -15.0625 L 6.34375 -2.46875 L 10.4375 -15.0625 L 11.9375 -15.0625 L 16.03125 -2.46875 L 20.015625 -15.0625 L 21.734375 -15.0625 L 16.78125 0 L 15.171875 0 L 11.1875 -12.59375 L 7.203125 0 L 5.59375 0 Z M 0.640625 -15.0625 "/></g></g></g><g fill="#000000" fill-opacity="1"><g transform="translate(780.252815, 106.558661)"><g><path d="M 2.265625 -15.0625 L 3.875 -15.0625 L 3.875 0 L 2.265625 0 Z M 2.265625 -15.0625 "/></g></g></g><g fill="#000000" fill-opacity="1"><g transform="translate(786.383832, 106.558661)"><g><path d="M 5.15625 -13.5625 L 0.4375 -13.5625 L 0.4375 -15.0625 L 11.515625 -15.0625 L 11.515625 -13.5625 L 6.78125 -13.5625 L 6.78125 0 L 5.15625 0 Z M 5.15625 -13.5625 "/></g></g></g><g fill="#000000" fill-opacity="1"><g transform="translate(798.323222, 106.558661)"><g><path d="M 6.03125 0.21875 C 5.164062 0.21875 4.410156 0.101562 3.765625 -0.125 C 3.128906 -0.351562 2.601562 -0.613281 2.1875 -0.90625 C 1.707031 -1.238281 1.300781 -1.617188 0.96875 -2.046875 L 1.9375 -3.140625 C 2.207031 -2.785156 2.535156 -2.476562 2.921875 -2.21875 C 3.253906 -1.96875 3.675781 -1.75 4.1875 -1.5625 C 4.707031 -1.382812 5.320312 -1.296875 6.03125 -1.296875 C 7.15625 -1.296875 8.007812 -1.554688 8.59375 -2.078125 C 9.175781 -2.597656 9.46875 -3.269531 9.46875 -4.09375 C 9.46875 -4.570312 9.347656 -4.96875 9.109375 -5.28125 C 8.867188 -5.59375 8.554688 -5.851562 8.171875 -6.0625 C 7.796875 -6.28125 7.363281 -6.460938 6.875 -6.609375 C 6.394531 -6.765625 5.894531 -6.921875 5.375 -7.078125 C 4.863281 -7.234375 4.363281 -7.40625 3.875 -7.59375 C 3.382812 -7.789062 2.945312 -8.046875 2.5625 -8.359375 C 2.1875 -8.671875 1.878906 -9.050781 1.640625 -9.5 C 1.410156 -9.945312 1.296875 -10.507812 1.296875 -11.1875 C 1.296875 -11.726562 1.40625 -12.242188 1.625 -12.734375 C 1.84375 -13.234375 2.164062 -13.671875 2.59375 -14.046875 C 3.019531 -14.421875 3.53125 -14.71875 4.125 -14.9375 C 4.71875 -15.164062 5.382812 -15.28125 6.125 -15.28125 C 6.863281 -15.28125 7.503906 -15.175781 8.046875 -14.96875 C 8.585938 -14.769531 9.046875 -14.550781 9.421875 -14.3125 C 9.847656 -14.019531 10.222656 -13.695312 10.546875 -13.34375 L 9.46875 -12.265625 C 9.238281 -12.535156 8.957031 -12.785156 8.625 -13.015625 C 8.34375 -13.203125 7.992188 -13.375 7.578125 -13.53125 C 7.171875 -13.6875 6.6875 -13.765625 6.125 -13.765625 C 5.613281 -13.765625 5.15625 -13.691406 4.75 -13.546875 C 4.351562 -13.410156 4.015625 -13.222656 3.734375 -12.984375 C 3.460938 -12.742188 3.253906 -12.46875 3.109375 -12.15625 C 2.972656 -11.851562 2.90625 -11.53125 2.90625 -11.1875 C 2.90625 -10.539062 3.101562 -10.039062 3.5 -9.6875 C 3.90625 -9.34375 4.410156 -9.054688 5.015625 -8.828125 C 5.628906 -8.597656 6.285156 -8.390625 6.984375 -8.203125 C 7.691406 -8.015625 8.347656 -7.765625 8.953125 -7.453125 C 9.566406 -7.148438 10.070312 -6.734375 10.46875 -6.203125 C 10.875 -5.679688 11.078125 -4.976562 11.078125 -4.09375 C 11.078125 -3.46875 10.960938 -2.894531 10.734375 -2.375 C 10.515625 -1.851562 10.191406 -1.398438 9.765625 -1.015625 C 9.335938 -0.628906 8.804688 -0.328125 8.171875 -0.109375 C 7.546875 0.109375 6.832031 0.21875 6.03125 0.21875 Z M 6.03125 0.21875 "/></g></g></g><g fill="#000000" fill-opacity="1"><g transform="translate(810.477723, 106.558661)"><g><path d="M 2.265625 -15.0625 L 8.28125 -15.0625 C 8.957031 -15.0625 9.578125 -14.945312 10.140625 -14.71875 C 10.710938 -14.488281 11.203125 -14.171875 11.609375 -13.765625 C 12.015625 -13.367188 12.332031 -12.894531 12.5625 -12.34375 C 12.789062 -11.789062 12.90625 -11.191406 12.90625 -10.546875 C 12.90625 -9.679688 12.738281 -8.972656 12.40625 -8.421875 C 12.082031 -7.867188 11.726562 -7.425781 11.34375 -7.09375 C 10.882812 -6.726562 10.367188 -6.441406 9.796875 -6.234375 L 13.34375 0 L 11.515625 0 L 8.171875 -6.03125 L 3.875 -6.03125 L 3.875 0 L 2.265625 0 Z M 8.28125 -7.53125 C 9.195312 -7.53125 9.925781 -7.800781 10.46875 -8.34375 C 11.019531 -8.894531 11.296875 -9.628906 11.296875 -10.546875 C 11.296875 -11.460938 11.019531 -12.191406 10.46875 -12.734375 C 9.925781 -13.285156 9.195312 -13.5625 8.28125 -13.5625 L 3.875 -13.5625 L 3.875 -7.53125 Z M 8.28125 -7.53125 "/></g></g></g><g fill="#000000" fill-opacity="1"><g transform="translate(824.998586, 106.558661)"><g><path d="M 2.265625 -15.0625 L 12.59375 -15.0625 L 12.59375 -13.5625 L 3.875 -13.5625 L 3.875 -8.609375 L 10.859375 -8.609375 L 10.859375 -7.09375 L 3.875 -7.09375 L 3.875 -1.5 L 12.796875 -1.5 L 12.796875 0 L 2.265625 0 Z M 2.265625 -15.0625 "/></g></g></g><g fill="#000000" fill-opacity="1"><g transform="translate(838.766514, 106.558661)"><g><path d="M 6.671875 -15.0625 L 8.171875 -15.0625 L 14.421875 0 L 12.6875 0 L 10.96875 -4.203125 L 3.875 -4.203125 L 2.15625 0 L 0.4375 0 Z M 10.328125 -5.703125 L 7.421875 -12.796875 L 4.515625 -5.703125 Z M 10.328125 -5.703125 "/></g></g></g><g fill="#000000" fill-opacity="1"><g transform="translate(853.610044, 106.558661)"><g><path d="M 2.265625 -15.0625 L 3.875 -15.0625 L 3.875 -1.5 L 11.625 -1.5 L 11.625 0 L 2.265625 0 Z M 2.265625 -15.0625 "/></g></g></g><g fill="#000000" fill-opacity="1"><g transform="translate(865.656966, 106.558661)"><g><path d="M 9.6875 2.796875 C 8.582031 2.796875 7.535156 2.578125 6.546875 2.140625 C 5.554688 1.703125 4.6875 1.109375 3.9375 0.359375 C 3.1875 -0.378906 2.59375 -1.242188 2.15625 -2.234375 C 1.71875 -3.222656 1.5 -4.269531 1.5 -5.375 C 1.5 -6.476562 1.71875 -7.523438 2.15625 -8.515625 C 2.59375 -9.503906 3.1875 -10.375 3.9375 -11.125 C 4.6875 -11.875 5.554688 -12.46875 6.546875 -12.90625 C 7.535156 -13.34375 8.582031 -13.5625 9.6875 -13.5625 C 10.832031 -13.5625 11.898438 -13.351562 12.890625 -12.9375 C 13.890625 -12.519531 14.753906 -11.957031 15.484375 -11.25 C 16.222656 -10.550781 16.800781 -9.726562 17.21875 -8.78125 C 17.644531 -7.84375 17.859375 -6.851562 17.859375 -5.8125 C 17.859375 -5.03125 17.765625 -4.359375 17.578125 -3.796875 C 17.398438 -3.234375 17.160156 -2.765625 16.859375 -2.390625 C 16.566406 -2.015625 16.210938 -1.738281 15.796875 -1.5625 C 15.390625 -1.382812 14.960938 -1.296875 14.515625 -1.296875 C 14.078125 -1.296875 13.707031 -1.367188 13.40625 -1.515625 C 13.113281 -1.671875 12.875 -1.847656 12.6875 -2.046875 C 12.476562 -2.253906 12.300781 -2.503906 12.15625 -2.796875 C 12 -2.503906 11.789062 -2.253906 11.53125 -2.046875 C 11.300781 -1.847656 11.003906 -1.671875 10.640625 -1.515625 C 10.285156 -1.367188 9.859375 -1.296875 9.359375 -1.296875 C 8.867188 -1.296875 8.40625 -1.394531 7.96875 -1.59375 C 7.53125 -1.789062 7.140625 -2.066406 6.796875 -2.421875 C 6.460938 -2.785156 6.195312 -3.210938 6 -3.703125 C 5.800781 -4.191406 5.703125 -4.710938 5.703125 -5.265625 C 5.703125 -5.828125 5.800781 -6.351562 6 -6.84375 C 6.195312 -7.332031 6.460938 -7.753906 6.796875 -8.109375 C 7.140625 -8.472656 7.53125 -8.753906 7.96875 -8.953125 C 8.40625 -9.148438 8.867188 -9.25 9.359375 -9.25 C 9.816406 -9.25 10.207031 -9.1875 10.53125 -9.0625 C 10.863281 -8.945312 11.132812 -8.8125 11.34375 -8.65625 C 11.582031 -8.476562 11.78125 -8.28125 11.9375 -8.0625 L 11.9375 -9.140625 L 13.234375 -9.140625 L 13.234375 -4.234375 C 13.234375 -3.648438 13.347656 -3.226562 13.578125 -2.96875 C 13.804688 -2.707031 14.117188 -2.578125 14.515625 -2.578125 C 14.773438 -2.578125 15.019531 -2.632812 15.25 -2.75 C 15.476562 -2.863281 15.679688 -3.046875 15.859375 -3.296875 C 16.046875 -3.546875 16.191406 -3.875 16.296875 -4.28125 C 16.398438 -4.695312 16.453125 -5.207031 16.453125 -5.8125 C 16.453125 -6.71875 16.285156 -7.5625 15.953125 -8.34375 C 15.617188 -9.132812 15.148438 -9.820312 14.546875 -10.40625 C 13.941406 -10.988281 13.226562 -11.441406 12.40625 -11.765625 C 11.582031 -12.097656 10.675781 -12.265625 9.6875 -12.265625 C 8.738281 -12.265625 7.851562 -12.085938 7.03125 -11.734375 C 6.21875 -11.378906 5.5 -10.890625 4.875 -10.265625 C 4.257812 -9.648438 3.773438 -8.921875 3.421875 -8.078125 C 3.078125 -7.242188 2.90625 -6.34375 2.90625 -5.375 C 2.90625 -4.40625 3.078125 -3.503906 3.421875 -2.671875 C 3.773438 -1.835938 4.257812 -1.109375 4.875 -0.484375 C 5.5 0.140625 6.21875 0.625 7.03125 0.96875 C 7.851562 1.320312 8.738281 1.5 9.6875 1.5 C 10.332031 1.5 10.90625 1.425781 11.40625 1.28125 C 11.90625 1.144531 12.332031 0.988281 12.6875 0.8125 C 13.09375 0.613281 13.453125 0.378906 13.765625 0.109375 L 14.515625 1.078125 C 14.160156 1.390625 13.75 1.675781 13.28125 1.9375 C 12.863281 2.15625 12.351562 2.351562 11.75 2.53125 C 11.144531 2.707031 10.457031 2.796875 9.6875 2.796875 Z M 9.46875 -2.578125 C 10.164062 -2.578125 10.75 -2.820312 11.21875 -3.3125 C 11.695312 -3.800781 11.9375 -4.453125 11.9375 -5.265625 C 11.9375 -6.085938 11.695312 -6.738281 11.21875 -7.21875 C 10.75 -7.707031 10.164062 -7.953125 9.46875 -7.953125 C 9.132812 -7.953125 8.820312 -7.890625 8.53125 -7.765625 C 8.25 -7.640625 8 -7.457031 7.78125 -7.21875 C 7.570312 -6.976562 7.40625 -6.691406 7.28125 -6.359375 C 7.15625 -6.035156 7.09375 -5.671875 7.09375 -5.265625 C 7.09375 -4.867188 7.15625 -4.503906 7.28125 -4.171875 C 7.40625 -3.835938 7.570312 -3.550781 7.78125 -3.3125 C 8 -3.082031 8.25 -2.898438 8.53125 -2.765625 C 8.820312 -2.640625 9.132812 -2.578125 9.46875 -2.578125 Z M 9.46875 -2.578125 "/></g></g></g><g fill="#000000" fill-opacity="1"><g transform="translate(885.018109, 106.558661)"><g><path d="M 9.03125 0.21875 C 7.957031 0.21875 6.953125 0.0195312 6.015625 -0.375 C 5.078125 -0.78125 4.253906 -1.332031 3.546875 -2.03125 C 2.847656 -2.738281 2.296875 -3.5625 1.890625 -4.5 C 1.492188 -5.445312 1.296875 -6.457031 1.296875 -7.53125 C 1.296875 -8.601562 1.492188 -9.609375 1.890625 -10.546875 C 2.296875 -11.492188 2.847656 -12.316406 3.546875 -13.015625 C 4.253906 -13.722656 5.078125 -14.273438 6.015625 -14.671875 C 6.953125 -15.078125 7.957031 -15.28125 9.03125 -15.28125 C 10.0625 -15.28125 10.957031 -15.113281 11.71875 -14.78125 C 12.476562 -14.445312 13.117188 -14.085938 13.640625 -13.703125 C 14.222656 -13.242188 14.734375 -12.726562 15.171875 -12.15625 L 14.09375 -11.1875 C 13.75 -11.675781 13.332031 -12.109375 12.84375 -12.484375 C 12.425781 -12.804688 11.898438 -13.097656 11.265625 -13.359375 C 10.640625 -13.628906 9.894531 -13.765625 9.03125 -13.765625 C 8.175781 -13.765625 7.375 -13.609375 6.625 -13.296875 C 5.882812 -12.984375 5.234375 -12.546875 4.671875 -11.984375 C 4.117188 -11.421875 3.6875 -10.757812 3.375 -10 C 3.0625 -9.238281 2.90625 -8.414062 2.90625 -7.53125 C 2.90625 -6.644531 3.0625 -5.820312 3.375 -5.0625 C 3.6875 -4.300781 4.117188 -3.640625 4.671875 -3.078125 C 5.234375 -2.515625 5.882812 -2.078125 6.625 -1.765625 C 7.375 -1.453125 8.175781 -1.296875 9.03125 -1.296875 C 9.851562 -1.296875 10.554688 -1.398438 11.140625 -1.609375 C 11.734375 -1.816406 12.222656 -2.046875 12.609375 -2.296875 C 13.066406 -2.597656 13.453125 -2.941406 13.765625 -3.328125 L 13.765625 -6.234375 L 10.328125 -6.234375 L 10.328125 -7.75 L 15.390625 -7.75 L 15.390625 -2.90625 C 14.921875 -2.3125 14.375 -1.785156 13.75 -1.328125 C 13.207031 -0.941406 12.539062 -0.585938 11.75 -0.265625 C 10.96875 0.0546875 10.0625 0.21875 9.03125 0.21875 Z M 9.03125 0.21875 "/></g></g></g><g fill="#000000" fill-opacity="1"><g transform="translate(902.120469, 106.558661)"><g><path d="M 2.265625 -15.0625 L 3.65625 -15.0625 L 9.890625 -6.890625 L 16.140625 -15.0625 L 17.53125 -15.0625 L 17.53125 0 L 15.921875 0 L 15.921875 -12.265625 L 9.890625 -4.296875 L 3.875 -12.265625 L 3.875 0 L 2.265625 0 Z M 2.265625 -15.0625 "/></g></g></g><g fill="#000000" fill-opacity="1"><g transform="translate(921.911858, 106.558661)"><g><path d="M 6.671875 -15.0625 L 8.171875 -15.0625 L 14.421875 0 L 12.6875 0 L 10.96875 -4.203125 L 3.875 -4.203125 L 2.15625 0 L 0.4375 0 Z M 10.328125 -5.703125 L 7.421875 -12.796875 L 4.515625 -5.703125 Z M 10.328125 -5.703125 "/></g></g></g><g fill="#000000" fill-opacity="1"><g transform="translate(936.755411, 106.558661)"><g><path d="M 2.265625 -15.0625 L 3.875 -15.0625 L 3.875 0 L 2.265625 0 Z M 2.265625 -15.0625 "/></g></g></g><g fill="#000000" fill-opacity="1"><g transform="translate(942.886428, 106.558661)"><g><path d="M 2.265625 -15.0625 L 3.875 -15.0625 L 3.875 -1.5 L 11.625 -1.5 L 11.625 0 L 2.265625 0 Z M 2.265625 -15.0625 "/></g></g></g><g fill="#000000" fill-opacity="1"><g transform="translate(954.933351, 106.558661)"><g><path d="M 2.265625 0.21875 C 1.929688 0.21875 1.664062 0.125 1.46875 -0.0625 C 1.28125 -0.257812 1.1875 -0.523438 1.1875 -0.859375 C 1.1875 -1.191406 1.28125 -1.453125 1.46875 -1.640625 C 1.664062 -1.835938 1.929688 -1.9375 2.265625 -1.9375 C 2.585938 -1.9375 2.84375 -1.835938 3.03125 -1.640625 C 3.226562 -1.453125 3.328125 -1.191406 3.328125 -0.859375 C 3.328125 -0.523438 3.226562 -0.257812 3.03125 -0.0625 C 2.84375 0.125 2.585938 0.21875 2.265625 0.21875 Z M 2.265625 0.21875 "/></g></g></g><g fill="#000000" fill-opacity="1"><g transform="translate(959.450964, 106.558661)"><g><path d="M 9.03125 0.21875 C 7.957031 0.21875 6.953125 0.0195312 6.015625 -0.375 C 5.078125 -0.78125 4.253906 -1.332031 3.546875 -2.03125 C 2.847656 -2.738281 2.296875 -3.5625 1.890625 -4.5 C 1.492188 -5.445312 1.296875 -6.457031 1.296875 -7.53125 C 1.296875 -8.601562 1.492188 -9.609375 1.890625 -10.546875 C 2.296875 -11.492188 2.847656 -12.316406 3.546875 -13.015625 C 4.253906 -13.722656 5.078125 -14.273438 6.015625 -14.671875 C 6.953125 -15.078125 7.957031 -15.28125 9.03125 -15.28125 C 10.0625 -15.28125 10.957031 -15.113281 11.71875 -14.78125 C 12.476562 -14.445312 13.117188 -14.085938 13.640625 -13.703125 C 14.222656 -13.242188 14.734375 -12.726562 15.171875 -12.15625 L 14.09375 -11.1875 C 13.75 -11.675781 13.332031 -12.109375 12.84375 -12.484375 C 12.425781 -12.804688 11.898438 -13.097656 11.265625 -13.359375 C 10.640625 -13.628906 9.894531 -13.765625 9.03125 -13.765625 C 8.175781 -13.765625 7.375 -13.609375 6.625 -13.296875 C 5.882812 -12.984375 5.234375 -12.546875 4.671875 -11.984375 C 4.117188 -11.421875 3.6875 -10.757812 3.375 -10 C 3.0625 -9.238281 2.90625 -8.414062 2.90625 -7.53125 C 2.90625 -6.644531 3.0625 -5.820312 3.375 -5.0625 C 3.6875 -4.300781 4.117188 -3.640625 4.671875 -3.078125 C 5.234375 -2.515625 5.882812 -2.078125 6.625 -1.765625 C 7.375 -1.453125 8.175781 -1.296875 9.03125 -1.296875 C 9.894531 -1.296875 10.648438 -1.425781 11.296875 -1.6875 C 11.941406 -1.957031 12.476562 -2.253906 12.90625 -2.578125 C 13.40625 -2.953125 13.835938 -3.382812 14.203125 -3.875 L 15.28125 -2.90625 C 14.832031 -2.3125 14.300781 -1.785156 13.6875 -1.328125 C 13.15625 -0.941406 12.503906 -0.585938 11.734375 -0.265625 C 10.960938 0.0546875 10.0625 0.21875 9.03125 0.21875 Z M 9.03125 0.21875 "/></g></g></g><g fill="#000000" fill-opacity="1"><g transform="translate(975.585231, 106.558661)"><g><path d="M 9.03125 0.21875 C 7.957031 0.21875 6.953125 0.0195312 6.015625 -0.375 C 5.078125 -0.78125 4.253906 -1.332031 3.546875 -2.03125 C 2.847656 -2.738281 2.296875 -3.5625 1.890625 -4.5 C 1.492188 -5.445312 1.296875 -6.457031 1.296875 -7.53125 C 1.296875 -8.601562 1.492188 -9.609375 1.890625 -10.546875 C 2.296875 -11.492188 2.847656 -12.316406 3.546875 -13.015625 C 4.253906 -13.722656 5.078125 -14.273438 6.015625 -14.671875 C 6.953125 -15.078125 7.957031 -15.28125 9.03125 -15.28125 C 10.113281 -15.28125 11.125 -15.078125 12.0625 -14.671875 C 13 -14.273438 13.816406 -13.722656 14.515625 -13.015625 C 15.222656 -12.316406 15.773438 -11.492188 16.171875 -10.546875 C 16.578125 -9.609375 16.78125 -8.601562 16.78125 -7.53125 C 16.78125 -6.457031 16.578125 -5.445312 16.171875 -4.5 C 15.773438 -3.5625 15.222656 -2.738281 14.515625 -2.03125 C 13.816406 -1.332031 13 -0.78125 12.0625 -0.375 C 11.125 0.0195312 10.113281 0.21875 9.03125 0.21875 Z M 9.03125 -1.296875 C 9.894531 -1.296875 10.695312 -1.453125 11.4375 -1.765625 C 12.1875 -2.078125 12.835938 -2.515625 13.390625 -3.078125 C 13.941406 -3.640625 14.375 -4.300781 14.6875 -5.0625 C 15.007812 -5.820312 15.171875 -6.644531 15.171875 -7.53125 C 15.171875 -8.414062 15.007812 -9.238281 14.6875 -10 C 14.375 -10.757812 13.941406 -11.421875 13.390625 -11.984375 C 12.835938 -12.546875 12.1875 -12.984375 11.4375 -13.296875 C 10.695312 -13.609375 9.894531 -13.765625 9.03125 -13.765625 C 8.175781 -13.765625 7.375 -13.609375 6.625 -13.296875 C 5.882812 -12.984375 5.234375 -12.546875 4.671875 -11.984375 C 4.117188 -11.421875 3.6875 -10.757812 3.375 -10 C 3.0625 -9.238281 2.90625 -8.414062 2.90625 -7.53125 C 2.90625 -6.644531 3.0625 -5.820312 3.375 -5.0625 C 3.6875 -4.300781 4.117188 -3.640625 4.671875 -3.078125 C 5.234375 -2.515625 5.882812 -2.078125 6.625 -1.765625 C 7.375 -1.453125 8.175781 -1.296875 9.03125 -1.296875 Z M 9.03125 -1.296875 "/></g></g></g><g fill="#000000" fill-opacity="1"><g transform="translate(993.655637, 106.558661)"><g><path d="M 2.265625 -15.0625 L 3.65625 -15.0625 L 9.890625 -6.890625 L 16.140625 -15.0625 L 17.53125 -15.0625 L 17.53125 0 L 15.921875 0 L 15.921875 -12.265625 L 9.890625 -4.296875 L 3.875 -12.265625 L 3.875 0 L 2.265625 0 Z M 2.265625 -15.0625 "/></g></g></g></svg>