<svg xmlns="http://www.w3.org/2000/svg" width="500" height="500" version="1.0" viewBox="0 0 375 375"><defs><clipPath id="a"><path d="M33.566 33.566h307.868v307.868H33.566Zm0 0"/></clipPath><clipPath id="b"><path d="M187.5 33.566c-85.016 0-153.934 68.918-153.934 153.934 0 85.016 68.918 153.934 153.934 153.934 85.016 0 153.934-68.918 153.934-153.934 0-85.016-68.918-153.934-153.934-153.934"/></clipPath></defs><g clip-path="url(#a)"><g clip-path="url(#b)"><path d="M33.566 33.566h307.868v307.868H33.566Zm0 0"/></g></g><path fill="#fff" d="M314.214 200.101h-20.562l-.188-98.61-41.656 84.844h-14.531l-41.657-84.843v98.61h-20.937V68.116h26.406l43.547 87.672 43.36-87.672h26.218Zm0 0"/><path fill="#fff" d="M75.48 161.856h62.766c19.801 0 35.141 4.688 46.016 14.063s16.312 22.617 16.312 39.718c0 17.844-5.437 31.684-16.312 41.516-10.875 9.824-26.215 14.734-46.016 14.734h-36.218v47.47H75.48Zm26.548 23.844v62.328h35.093c25.352 0 38.032-10.57 38.032-31.719 0-20.406-12.68-30.61-38.032-30.61Zm0 0"/></svg>