<svg xmlns="http://www.w3.org/2000/svg" width="500" height="500" version="1.0" viewBox="0 0 375 375"><path d="m133.22 136.626.77-.765-2.855-2.875 1.558-1.551c1.786-1.774 1.696-3.723.454-4.973-1.137-1.144-2.985-1.422-4.778.363l-2.46 2.446Zm-2.796-4.355-3.027-3.043 1.625-1.613c1.449-1.442 2.644-1.063 3.367-.34.734.742.976 2.074-.38 3.418ZM146.777 125.196l-5.79-8.61-.902.606 5.79 8.61ZM163.682 116.747l-3.91-9.61-.997.407 3.266 8.023-8.934-5.719-1.164.477 3.907 9.61.996-.407-3.332-8.183 9.086 5.843ZM178.057 113.606c2.52-.344 3.875-2.16 4.215-3.797l-1.035-.328c-.355 1.602-1.39 2.84-3.281 3.098-2.324.316-4.277-1.262-4.61-3.703-.34-2.48 1.266-4.438 3.446-4.739 2.137-.289 3.394.875 3.984 2.078l.91-.578c-.695-1.496-2.488-2.87-5.007-2.527-2.813.387-4.88 2.86-4.454 5.984.422 3.098 2.996 4.899 5.832 4.512ZM193.168 113.003l.531-4.715 5.871.664-.531 4.715 1.078.121 1.168-10.308-1.082-.121-.516 4.554-5.87-.664.515-4.555-1.078-.12-1.168 10.308ZM229.207 125.352l.922.547 5.27-8.937-1.348-.793-7.825 5.707 1.172-9.63-1.324-.78-5.27 8.937.926.543 4.48-7.601-1.183 9.546.848.497 7.836-5.7.012.008ZM249.307 130.4l.71-.711-4.597-4.586-7.324 7.347 4.633 4.621.71-.715-3.863-3.851 2.657-2.664 3.5 3.488.71-.715-3.5-3.488 2.536-2.543ZM105.103 169.948c-.426 2.035.664 3.547 2.152 3.863.676.14 1.305-.011 1.86-.34.726-.43 1.32-1.254 1.82-2.285.71-1.449 1.351-1.976 2.27-1.785 1.062.223 1.51 1.375 1.284 2.465-.285 1.348-1.195 1.816-2.11 1.976l.317 1.016c1.301-.2 2.43-1.074 2.785-2.758.356-1.687-.367-3.406-2.105-3.773-1.414-.297-2.504.46-3.45 2.441-.679 1.43-1.456 2.16-2.519 1.938-1.062-.223-1.554-1.356-1.304-2.551.289-1.387 1.222-1.95 2.503-2.18l-.289-1.023c-1.664.262-2.84 1.219-3.214 2.996ZM108.86 194.386c2.952-.085 5.19-2.378 5.105-5.343-.086-3.008-2.496-5.164-5.477-5.078-2.953.09-5.191 2.379-5.105 5.347.09 3.004 2.496 5.16 5.476 5.074Zm-.098-1.125c-2.317.07-4.29-1.554-4.36-3.94-.07-2.411 1.84-4.161 4.188-4.231 2.316-.067 4.285 1.558 4.355 3.941.07 2.41-1.855 4.164-4.183 4.23ZM109.97 219.088l9.582-3.969-.414-1.004-9.582 3.973ZM131.352 234.166l-.73-.805-7.672 6.98.73.806 3.696-3.36.05.059-.421 6.957 1.035 1.136.414-7.578 7.098.422-1.024-1.129-6.52-.355-.046-.047ZM143.296 257.79l5.816-8.59-.89-.601-4.856 7.175-.21-10.609-1.044-.703-5.816 8.586.89.601 4.954-7.316.187 10.8ZM165.282 261.744c.984-2.785-.348-5.703-3.145-6.691-2.836-1-5.715.469-6.71 3.277-.985 2.785.347 5.703 3.144 6.692 2.836 1 5.715-.47 6.71-3.278Zm-1.086-.312c-.774 2.183-3 3.433-5.246 2.64-2.274-.804-3.22-3.218-2.438-5.43.774-2.183 3-3.437 5.246-2.64 2.274.805 3.215 3.23 2.438 5.43ZM175.815 258.793l-1.137-.067 2.621 10.547 1.192.07 3.308-8.718 2.235 9.05 1.214.075 3.871-10.164-1.097-.063-3.25 8.672-.028-.004-2.222-8.996-1.23-.074-3.262 8.617h-.028ZM213.167 265.146l-3.317-9.829-1.031.348 3.316 9.828ZM221.766 251.12l4.59 8.148.957-.539-4.59-8.148 3.012-1.7-.5-.89-6.996 3.945.5.887ZM241.439 248.67c1.55-1.386 1.57-3.254.559-4.39-.461-.512-1.055-.762-1.7-.828-.84-.086-1.804.226-2.82.761-1.43.742-2.258.79-2.887.09-.722-.812-.402-2.004.43-2.746 1.027-.918 2.04-.758 2.871-.344l.348-1.004c-1.168-.609-2.594-.578-3.88.57-1.284 1.145-1.726 2.962-.542 4.286.96 1.078 2.289 1.113 4.226.078 1.395-.746 2.454-.871 3.176-.063.723.813.45 2.016-.46 2.829-1.06.941-2.141.843-3.31.27l-.374.991c1.492.782 3.007.707 4.363-.5ZM255.392 224.173l.953-1.895 5.125-.851.594-1.184-5.355.898c.515-1.476.21-3.082-1.375-3.878-1.446-.727-3.2-.364-4.336 1.898l-1.61 3.21 9.27 4.657.488-.973Zm-.887-.45-3.718-1.867 1.093-2.176c.887-1.765 2.082-1.875 2.997-1.417.933.468 1.554 1.625.71 3.308ZM258.313 200.977l-.977-.238-1.55 6.304 10.073 2.473 1.563-6.355-.98-.243-1.301 5.301-3.653-.894 1.18-4.801-.98-.238-1.18 4.796-3.485-.855ZM268.9 191.845l-2.637-1.171.066-5.657 2.664-1.093.012-1.153-10.422 4.356-.016 1.234 10.32 4.598Zm-3.567-6.414-.059 4.82-5.574-2.472ZM266.4 171.1l-9.144 1.961.226 1.059 10.145-2.168-1.258-5.872-.996.215ZM234.96 166.73v5.11h-20.5v12.094h18.297v5.109H214.46v12.25h21.266v5.172h-26.594V166.73ZM161.25 196.027h-15.281l-4.235 10.438h-5.265l17.359-41.375h.328l17.36 41.375h-6.157Zm-1.813-4.625-5.672-14.5-5.875 14.5Zm0 0"/><path fill="none" stroke="#000" stroke-width="2" d="M-.002.999H118.15" transform="matrix(0 -.7491 .75 0 186.747 231.804)"/></svg>