<svg xmlns="http://www.w3.org/2000/svg" width="500" height="500" version="1.0" viewBox="0 0 375 375"><path d="m74.433 83.237 1.633-1.625-6.058-6.094 3.304-3.285c3.781-3.762 3.598-7.89.965-10.539-2.414-2.43-6.324-3.016-10.129.766l-5.215 5.187Zm-5.93-9.23-6.413-6.45 3.445-3.425c3.066-3.047 5.605-2.246 7.129-.715 1.562 1.574 2.07 4.394-.797 7.246ZM103.153 59.007 90.89 40.764l-1.91 1.282 12.262 18.246ZM138.98 41.108l-8.286-20.363-2.105.855 6.918 17.008-18.934-12.117-2.469 1.004 8.285 20.363 2.106-.86-7.059-17.343 19.254 12.383ZM169.445 34.45c5.34-.727 8.215-4.578 8.93-8.047l-2.191-.692c-.754 3.387-2.946 6.012-6.954 6.559-4.921.672-9.062-2.672-9.769-7.848-.719-5.257 2.684-9.406 7.3-10.035 4.536-.62 7.196 1.852 8.45 4.399l1.93-1.227c-1.48-3.168-5.278-6.078-10.621-5.352-5.954.817-10.336 6.06-9.434 12.68.898 6.567 6.348 10.383 12.36 9.563ZM201.465 33.169l1.129-9.985 12.445 1.407-1.133 9.988 2.29.258 2.472-21.844-2.289-.258-1.094 9.653-12.441-1.41 1.094-9.653-2.29-.258-2.472 21.844ZM277.84 59.344l1.957 1.156 11.164-18.937-2.852-1.684-16.582 12.094 2.48-20.406-2.804-1.653-11.164 18.938 1.957 1.156 9.496-16.11-2.504 20.227 1.79 1.059 16.605-12.082.023.016ZM320.435 70.039l1.504-1.512-9.743-9.71-15.52 15.566 9.821 9.793 1.508-1.512-8.191-8.168 5.628-5.644 7.415 7.394 1.507-1.512-7.414-7.394 5.371-5.387ZM14.846 153.843c-.906 4.313 1.403 7.524 4.563 8.188 1.426.3 2.758-.024 3.937-.723 1.54-.91 2.797-2.652 3.856-4.84 1.508-3.07 2.863-4.191 4.812-3.781 2.254.477 3.203 2.914 2.719 5.219-.602 2.86-2.531 3.86-4.469 4.199l.668 2.148c2.758-.425 5.156-2.273 5.906-5.847.75-3.57-.777-7.22-4.46-7.992-2.997-.63-5.313.976-7.313 5.175-1.438 3.024-3.086 4.575-5.336 4.098-2.254-.473-3.3-2.871-2.77-5.398.622-2.942 2.59-4.133 5.305-4.625l-.605-2.165c-3.532.551-6.024 2.579-6.813 6.344ZM22.804 205.636c6.262-.184 11.004-5.04 10.82-11.328-.187-6.368-5.293-10.938-11.605-10.754-6.258.183-11.004 5.043-10.82 11.328.187 6.371 5.292 10.937 11.605 10.754Zm-.207-2.383c-4.914.144-9.086-3.3-9.235-8.352-.148-5.105 3.899-8.82 8.868-8.964 4.91-.145 9.082 3.3 9.23 8.351.152 5.11-3.926 8.82-8.863 8.965ZM25.16 257.986l20.304-8.418-.879-2.125-20.308 8.418ZM70.475 289.935l-1.551-1.703-16.262 14.793 1.551 1.703 7.828-7.121.113.125-.894 14.742 2.191 2.41.88-16.055 15.042.887-2.176-2.387-13.816-.754-.094-.101ZM95.777 339.997l12.328-18.2-1.883-1.276-10.297 15.203-.441-22.477-2.207-1.496-12.328 18.2 1.883 1.277 10.5-15.504.398 22.886ZM142.37 348.374c2.086-5.903-.734-12.078-6.664-14.176-6.008-2.121-12.11.992-14.215 6.945-2.085 5.903.73 12.082 6.66 14.176 6.008 2.125 12.114-.988 14.22-6.945Zm-2.297-.66c-1.636 4.632-6.355 7.28-11.12 5.597-4.817-1.703-6.82-6.82-5.165-11.504 1.637-4.633 6.356-7.281 11.121-5.597 4.817 1.703 6.809 6.843 5.164 11.503ZM164.695 342.124l-2.41-.145 5.558 22.356 2.52.148 7.011-18.48 4.735 19.183 2.578.153 8.203-21.532-2.328-.14-6.89 18.379-.056-.004-4.71-19.07-2.61-.157-6.91 18.266-.055-.004ZM243.848 355.585l-7.028-20.828-2.18.734 7.024 20.832ZM262.07 325.862l9.731 17.266 2.031-1.145-9.734-17.265 6.387-3.598-1.063-1.883-14.824 8.352 1.062 1.883ZM303.76 320.667c3.289-2.934 3.335-6.887 1.183-9.297-.973-1.09-2.234-1.617-3.598-1.754-1.78-.183-3.824.477-5.976 1.61-3.035 1.578-4.79 1.675-6.117.187-1.532-1.715-.852-4.242.906-5.812 2.18-1.946 4.328-1.606 6.086-.73l.738-2.126c-2.472-1.293-5.5-1.226-8.222 1.203-2.723 2.434-3.657 6.278-1.149 9.082 2.035 2.285 4.856 2.364 8.957.172 2.953-1.582 5.195-1.855 6.727-.137 1.535 1.72.953 4.27-.973 5.989-2.242 2.004-4.539 1.793-7.016.578l-.793 2.101c3.168 1.653 6.38 1.497 9.247-1.066ZM333.33 268.756l2.016-4.016 10.867-1.8 1.258-2.509-11.351 1.899c1.097-3.125.449-6.527-2.91-8.215-3.063-1.539-6.782-.766-9.188 4.023l-3.414 6.801 19.644 9.867 1.032-2.058Zm-1.878-.946-7.88-3.957 2.317-4.617c1.88-3.738 4.414-3.973 6.348-3.004 1.98.996 3.297 3.45 1.508 7.012ZM339.519 219.603l-2.07-.507-3.282 13.359 21.348 5.242 3.309-13.469-2.075-.507-2.757 11.234-7.743-1.902 2.496-10.172-2.07-.508-2.5 10.168-7.387-1.813ZM361.958 200.252l-5.586-2.48.137-11.989 5.644-2.32.028-2.442-22.09 9.235-.032 2.61 21.872 9.741Zm-7.563-13.594-.117 10.219-11.816-5.246ZM356.657 156.292l-19.378 4.149.48 2.25 21.496-4.602-2.664-12.437-2.113.453ZM290.024 147.03v10.843h-43.438v25.61h38.781v10.827h-38.78v25.97h45.062v10.952h-56.36V147.03ZM133.821 209.107h-32.375l-8.969 22.125H81.29l36.812-87.687h.688l36.812 87.687h-13.046Zm-3.844-9.781-12-30.75-12.453 30.75Zm0 0"/><path fill="none" stroke="#000" stroke-width="4" d="M.002 2.001h250.375" transform="matrix(0 -.74888 .75 0 187.956 284.935)"/></svg>